<?xml version="1.0" encoding="UTF-8"?>
<svg version="1.1" xmlns="http://www.w3.org/2000/svg" width="130" height="130">
<path d="M0 0 C2.4375 2.25 2.4375 2.25 4 5 C3.9375 7.1875 3.9375 7.1875 3 9 C2.01 9.66 1.02 10.32 0 11 C3.96 11 7.92 11 12 11 C12.33 9.35 12.66 7.7 13 6 C14.64080046 3.62083933 15.53825768 3.09720891 18.375 2.5 C22.06546126 3.202945 23.40272051 5.34088052 26 8 C29.26926446 10.22285073 29.26926446 10.22285073 33 11 C34.9212393 10.14611587 36.49928929 9.06299476 38.22265625 7.86328125 C40.5005826 6.75685988 41.54423738 7.03250276 43.9375 7.75 C44.948125 8.1625 45.95875 8.575 47 9 C46.979375 8.030625 46.95875 7.06125 46.9375 6.0625 C47 3 47 3 48 2 C51.4375 1.75 51.4375 1.75 55 2 C55.99 3.485 55.99 3.485 57 5 C58.423125 4.9690625 58.423125 4.9690625 59.875 4.9375 C63 5 63 5 65.3125 6.6875 C67.1794955 9.24597532 67.75837496 10.85887442 68 14 C67.67 14.99 67.34 15.98 67 17 C67.7734375 17.5259375 67.7734375 17.5259375 68.5625 18.0625 C70 20 70 20 70.0625 23.375 C68.66419624 28.1456834 67.02627072 29.20626113 63 32 C59.56143022 33.71928489 55.76751104 33.38974252 52 33 C48.9375 31.5 48.9375 31.5 47 30 C46.319375 30.66 45.63875 31.32 44.9375 32 C41.31312143 34.46766201 39.30379794 34.39849981 35 34 C33.515 33.505 33.515 33.505 32 33 C31.01 33.66 30.02 34.32 29 35 C25.24301443 35.37569856 24.24633524 35.1642235 21 33 C20.505 33.495 20.01 33.99 19.5 34.5 C16.39746754 36.36151947 14.43643629 36.18395821 10.90625 36.0390625 C8.7917955 35.99573351 7.00465964 36.33178012 5 37 C5 37.99 5 38.98 5 40 C6.670625 39.9690625 6.670625 39.9690625 8.375 39.9375 C12 40 12 40 14 41 C14 41.66 14 42.32 14 43 C14.70125 42.34 15.4025 41.68 16.125 41 C21.27736228 37.46552926 28.05325738 38.72553496 34 39 C36.04702529 39.16149994 36.04702529 39.16149994 37.77734375 38.015625 C40.51007673 36.76692452 42.56791325 36.73370293 45.5625 36.75 C46.51253906 36.74484375 47.46257812 36.7396875 48.44140625 36.734375 C51 37 51 37 54 39 C54.33 38.01 54.66 37.02 55 36 C57.24691477 35.7236415 59.49784842 35.47981139 61.75 35.25 C63.00296875 35.11078125 64.2559375 34.9715625 65.546875 34.828125 C69 35 69 35 71.41796875 36.79296875 C73.36630912 39.51102384 73.51244581 41.7264219 74 45 C74.53625 45.474375 75.0725 45.94875 75.625 46.4375 C77 48 77 48 77 51.3125 C75.77036922 55.84676351 74.25311388 57.66754187 71 61 C68.22899606 62.38550197 66.0665294 62.1877467 63 62 C61.515 61.01 61.515 61.01 60 60 C59.34 60.99 58.68 61.98 58 63 C58.45375 63.45375 58.9075 63.9075 59.375 64.375 C60.58333333 65.58333333 61.79166667 66.79166667 63 68 C64.3921875 67.690625 64.3921875 67.690625 65.8125 67.375 C69 67 69 67 71.8125 68.5 C74.58141711 71.66447669 74.55885649 73.88266061 75 78 C75.53625 78.66 76.0725 79.32 76.625 80 C78 82 78 82 77.9375 85.4375 C76.75326665 89.93758672 75.37943671 92.61109803 71.2734375 95.0078125 C66.5811994 97.082866 62.89530108 97.11728347 57.8828125 96.2265625 C55.91268905 95.81412719 55.91268905 95.81412719 54 97 C47.46666667 97.23333333 47.46666667 97.23333333 45 96 C44.08927734 96.45826172 44.08927734 96.45826172 43.16015625 96.92578125 C40.70676031 98.14582444 39.15616928 98.23810129 36.4375 98.1875 C35.67308594 98.18105469 34.90867187 98.17460938 34.12109375 98.16796875 C32 98 32 98 29 97 C28.0925 97.495 27.185 97.99 26.25 98.5 C22.21006242 100.36458658 20.25823108 100.16133575 16 99 C13.0625 96.9375 13.0625 96.9375 11 95 C10.505 96.485 10.505 96.485 10 98 C6.38461225 100.95804452 3.59526255 101.23947514 -1.01171875 101.03125 C-3.22606595 100.92874363 -3.22606595 100.92874363 -6.25 101.625 C-9.29928038 102.04081096 -10.4658752 101.65692775 -13 100 C-13.598125 100.474375 -14.19625 100.94875 -14.8125 101.4375 C-18.7854402 104.27531443 -22.23028649 104.32894576 -27 104 C-31.08998175 102.19279876 -33.66247347 99.80930249 -36 96 C-36.5625 92.5 -36.5625 92.5 -36 89 C-33.45862841 85.84045695 -31.85377341 84.28459114 -28 83 C-28.33 82.34 -28.66 81.68 -29 81 C-29.67979003 74.20209974 -29.67979003 74.20209974 -27.98828125 71.2109375 C-25.89323212 68.65661333 -23.74765913 66.83177275 -21 65 C-21.99 61.535 -21.99 61.535 -23 58 C-24.36125 57.9071875 -24.36125 57.9071875 -25.75 57.8125 C-29 57 -29 57 -31.375 54.8125 C-33.34134367 51.40921288 -33.62005476 49.87534226 -33 46 C-31.83449532 43.50823137 -30.48975507 41.3277423 -29 39 C-29.7734375 38.4740625 -29.7734375 38.4740625 -30.5625 37.9375 C-32 36 -32 36 -31.875 32.875 C-30.87760565 28.45796788 -29.53439907 24.25578611 -28 20 C-28.99 19.319375 -29.98 18.63875 -31 17.9375 C-33.69116668 15.68101107 -33.96700771 15.16796073 -34.6875 11.5 C-33.8403214 7.18709077 -32.3720891 5.72978642 -29 3 C-26.08663458 1.54331729 -23.29944543 1.56971857 -20.0625 1.3125 C-18.81597656 1.20550781 -17.56945312 1.09851563 -16.28515625 0.98828125 C-13 1 -13 1 -10 3 C-9.46375 2.505 -8.9275 2.01 -8.375 1.5 C-5.27859404 -0.45562482 -3.60146865 -0.60024477 0 0 Z M-10 20 C-9 22 -9 22 -9 22 Z M-19 33 C-19 33.99 -19 34.98 -19 36 C-18.01 35.67 -17.02 35.34 -16 35 C-16.99 34.34 -17.98 33.68 -19 33 Z M-12 38 C-11.34 41.3 -10.68 44.6 -10 48 C-7.60236815 45.60236815 -7.65719414 44.66726502 -7.375 41.375 C-7.26285156 40.14910156 -7.26285156 40.14910156 -7.1484375 38.8984375 C-7.09945312 38.27195313 -7.05046875 37.64546875 -7 37 C-8.69967317 37 -10.35107482 37.58776871 -12 38 Z M-4 61 C-5.65 62.65 -7.3 64.3 -9 66 C-7.69844994 70.07964281 -7.69844994 70.07964281 -6 74 C-1.59626969 75.12998945 1.94025609 74.90017385 6.375 74.0625 C7.96441406 73.77052734 7.96441406 73.77052734 9.5859375 73.47265625 C10.38257812 73.31667969 11.17921875 73.16070312 12 73 C11.01 70.69 10.02 68.38 9 66 C8.39671875 65.97421875 7.7934375 65.9484375 7.171875 65.921875 C0.5626072 65.45283019 0.5626072 65.45283019 -2.5625 62.9375 C-3.036875 62.298125 -3.51125 61.65875 -4 61 Z M31 62 C30.16121545 63.28813342 29.32913217 64.58063256 28.5 65.875 C28.0359375 66.59429687 27.571875 67.31359375 27.09375 68.0546875 C25.83663499 69.91860466 25.83663499 69.91860466 26 72 C27.98 72.99 29.96 73.98 32 75 C32.845625 74.34 33.69125 73.68 34.5625 73 C38.43436947 70.74727595 40.60278797 70.64822304 45 71 C45 70.34 45 69.68 45 69 C46.65 68.67 48.3 68.34 50 68 C50.33 67.01 50.66 66.02 51 65 C51.66 64.67 52.32 64.34 53 64 C53 63.34 53 62.68 53 62 C51.01432292 62.29296875 49.02864583 62.5859375 47.04296875 62.87890625 C45 63 45 63 42 62 C41.01 62.495 41.01 62.495 40 63 C36.62177584 63.14375422 34.22609045 63.07536348 31 62 Z " fill="#10130B" transform="translate(44,13)"/>
<path d="M0 0 C2.4375 2.25 2.4375 2.25 4 5 C3.9375 7.1875 3.9375 7.1875 3 9 C2.01 9.66 1.02 10.32 0 11 C3.96 11 7.92 11 12 11 C12.33 9.35 12.66 7.7 13 6 C14.64080046 3.62083933 15.53825768 3.09720891 18.375 2.5 C22.06546126 3.202945 23.40272051 5.34088052 26 8 C29.26926446 10.22285073 29.26926446 10.22285073 33 11 C34.9212393 10.14611587 36.49928929 9.06299476 38.22265625 7.86328125 C40.5005826 6.75685988 41.54423738 7.03250276 43.9375 7.75 C44.948125 8.1625 45.95875 8.575 47 9 C46.979375 8.030625 46.95875 7.06125 46.9375 6.0625 C47 3 47 3 48 2 C51.4375 1.75 51.4375 1.75 55 2 C55.99 3.485 55.99 3.485 57 5 C58.99954746 5.04254356 61.00041636 5.04080783 63 5 C63.99 5.66 64.98 6.32 66 7 C65.34 8.65 64.68 10.3 64 12 C62.68 11.67 61.36 11.34 60 11 C60.99 14.3 61.98 17.6 63 21 C63.99 20.67 64.98 20.34 66 20 C65.1342843 22.66929007 64.27808762 24.67741836 62.4375 26.8125 C58.78386607 28.5924755 54.98748376 28.7490301 51 28 C49.203125 26.61328125 49.203125 26.61328125 48 25 C48.3125 22.8125 48.3125 22.8125 49 21 C44.99097581 22.3363414 44.19108105 24.49427032 42 28 C41 29 41 29 37.625 29.1875 C34 29 34 29 31 27 C30.608125 27.515625 30.21625 28.03125 29.8125 28.5625 C29.214375 29.036875 28.61625 29.51125 28 30 C25.3125 29.6875 25.3125 29.6875 23 29 C22.61718841 23.76824163 23.78145293 20.62197306 26 16 C23.65537684 18.13207942 22.35206315 20.05397038 21.0625 22.9375 C19.43707179 26.25557338 18.11977558 28.86072531 15 31 C11.5625 31.1875 11.5625 31.1875 8 31 C7.0925 31.185625 6.185 31.37125 5.25 31.5625 C3 32 3 32 0 31 C-0.66 32.32 -1.32 33.64 -2 35 C-1.01 35.33 -0.02 35.66 1 36 C0.43179252 41.45479185 -0.94637945 45.91059256 -3 51 C-1.14588136 49.16731626 0.62377426 47.31056529 2.375 45.375 C5.08639192 42.92183588 6.38009161 42.09783536 10 42 C12 44 12 44 12.375 46.875 C12 50 12 50 10.3125 52.375 C7.61209763 54.27258004 6.22939919 54.35882213 3 54 C3.33 54.99 3.66 55.98 4 57 C8.1325509 56.54082768 10.31884907 56.21148848 13 53 C14.05679603 51.0996587 14.05679603 51.0996587 14.9375 49.0625 C18.10269293 42.70866827 18.10269293 42.70866827 21 41 C24.72624026 40.9838224 28.32384854 41.41688632 32 42 C27.42919868 64.85400659 27.42919868 64.85400659 20 70 C16.25 70.5625 16.25 70.5625 13 70 C12.01 69.01 12.01 69.01 11 68 C10.01 68.495 10.01 68.495 9 69 C9 68.01 9 67.02 9 66 C8.113125 66.226875 7.22625 66.45375 6.3125 66.6875 C2.37496048 67.05896599 1.10775403 66.33081552 -2 64 C-2.66 63.34 -3.32 62.68 -4 62 C-6.08333079 63.74934898 -6.08333079 63.74934898 -8 66 C-8 67.32 -8 68.64 -8 70 C-8.66 70 -9.32 70 -10 70 C-9.938125 70.763125 -9.87625 71.52625 -9.8125 72.3125 C-10 75 -10 75 -11.5 76.8125 C-11.995 77.204375 -12.49 77.59625 -13 78 C-14.485 77.505 -14.485 77.505 -16 77 C-15.34 75.02 -14.68 73.04 -14 71 C-16.97 71.99 -16.97 71.99 -20 73 C-19.72073101 77.00285558 -19.48303305 78.56409213 -16.4375 81.3125 C-13.82187126 84.19639835 -13.58404615 84.80581589 -13.4375 88.5 C-13.67127659 92.75048345 -14.8477902 95.0332143 -18 98 C-21.43856978 99.71928489 -25.23248896 99.38974252 -29 99 C-32.0625 97.5 -32.0625 97.5 -34 96 C-34.495 96.99 -34.495 96.99 -35 98 C-36.56935594 94.86128812 -36.35201103 92.46144178 -36 89 C-33.45862841 85.84045695 -31.85377341 84.28459114 -28 83 C-28.33 82.34 -28.66 81.68 -29 81 C-29.67979003 74.20209974 -29.67979003 74.20209974 -27.98828125 71.2109375 C-25.89323212 68.65661333 -23.74765913 66.83177275 -21 65 C-21.99 61.535 -21.99 61.535 -23 58 C-24.36125 57.9071875 -24.36125 57.9071875 -25.75 57.8125 C-29 57 -29 57 -31.375 54.8125 C-33.34134367 51.40921288 -33.62005476 49.87534226 -33 46 C-31.83449532 43.50823137 -30.48975507 41.3277423 -29 39 C-29.7734375 38.4740625 -29.7734375 38.4740625 -30.5625 37.9375 C-32 36 -32 36 -31.875 32.875 C-30.87760565 28.45796788 -29.53439907 24.25578611 -28 20 C-28.99 19.319375 -29.98 18.63875 -31 17.9375 C-33.69116668 15.68101107 -33.96700771 15.16796073 -34.6875 11.5 C-33.8403214 7.18709077 -32.3720891 5.72978642 -29 3 C-26.08663458 1.54331729 -23.29944543 1.56971857 -20.0625 1.3125 C-18.81597656 1.20550781 -17.56945312 1.09851563 -16.28515625 0.98828125 C-13 1 -13 1 -10 3 C-9.46375 2.505 -8.9275 2.01 -8.375 1.5 C-5.27859404 -0.45562482 -3.60146865 -0.60024477 0 0 Z M-10 20 C-9 22 -9 22 -9 22 Z M-19 33 C-19 33.99 -19 34.98 -19 36 C-18.01 35.67 -17.02 35.34 -16 35 C-16.99 34.34 -17.98 33.68 -19 33 Z M-12 38 C-11.34 41.3 -10.68 44.6 -10 48 C-7.60236815 45.60236815 -7.65719414 44.66726502 -7.375 41.375 C-7.26285156 40.14910156 -7.26285156 40.14910156 -7.1484375 38.8984375 C-7.09945312 38.27195313 -7.05046875 37.64546875 -7 37 C-8.69967317 37 -10.35107482 37.58776871 -12 38 Z " fill="#13140F" transform="translate(44,13)"/>
<path d="M0 0 C2.0625 0.4375 2.0625 0.4375 4 1 C3.43179252 6.45479185 2.05362055 10.91059256 0 16 C1.85411864 14.16731626 3.62377426 12.31056529 5.375 10.375 C8.08639192 7.92183588 9.38009161 7.09783536 13 7 C15 9 15 9 15.375 11.875 C15 15 15 15 13.3125 17.375 C10.61209763 19.27258004 9.22939919 19.35882213 6 19 C6.495 20.485 6.495 20.485 7 22 C11.1325509 21.54082768 13.31884907 21.21148848 16 18 C17.05679603 16.0996587 17.05679603 16.0996587 17.9375 14.0625 C21.10269293 7.70866827 21.10269293 7.70866827 24 6 C27.72624026 5.9838224 31.32384854 6.41688632 35 7 C30.42919868 29.85400659 30.42919868 29.85400659 23 35 C19.25 35.5625 19.25 35.5625 16 35 C15.34 34.34 14.68 33.68 14 33 C13.01 33.495 13.01 33.495 12 34 C12 33.01 12 32.02 12 31 C11.113125 31.226875 10.22625 31.45375 9.3125 31.6875 C5.37496048 32.05896599 4.10775403 31.33081552 1 29 C0.34 28.34 -0.32 27.68 -1 27 C-3.08333079 28.74934898 -3.08333079 28.74934898 -5 31 C-5 32.32 -5 33.64 -5 35 C-5.66 35 -6.32 35 -7 35 C-6.9071875 36.1446875 -6.9071875 36.1446875 -6.8125 37.3125 C-7 40 -7 40 -8.5 41.8125 C-8.995 42.204375 -9.49 42.59625 -10 43 C-11.485 42.505 -11.485 42.505 -13 42 C-12.34 40.02 -11.68 38.04 -11 36 C-12.98 36.66 -14.96 37.32 -17 38 C-16.72073101 42.00285558 -16.48303305 43.56409213 -13.4375 46.3125 C-10.82187126 49.19639835 -10.58404615 49.80581589 -10.4375 53.5 C-10.67127659 57.75048345 -11.8477902 60.0332143 -15 63 C-18.4627951 64.73139755 -22.21380547 64.46991776 -26 64 C-28.625 62.4375 -28.625 62.4375 -30 60 C-29.67857143 53.67857143 -29.67857143 53.67857143 -28 52 C-26.33382885 51.95936168 -24.66611905 51.957279 -23 52 C-23.185625 52.969375 -23.37125 53.93875 -23.5625 54.9375 C-23.706875 55.948125 -23.85125 56.95875 -24 58 C-22.81575674 59.41577477 -22.81575674 59.41577477 -19.4375 59.0625 C-17.7359375 59.0315625 -17.7359375 59.0315625 -16 59 C-16.19378374 54.25229842 -16.73127698 51.95663377 -20.0625 48.5 C-22.49742667 45.87051502 -22.98541199 45.07050871 -23.75 41.375 C-23 38 -23 38 -20.375 35.125 C-17.03494629 33.02200322 -14.8937575 32.27812554 -11 32 C-11 31.34 -11 30.68 -11 30 C-11.639375 29.855625 -12.27875 29.71125 -12.9375 29.5625 C-15 29 -15 29 -16 28 C-16.08669432 26.5112814 -16.10703494 25.018555 -16.09765625 23.52734375 C-16.09443359 22.62822266 -16.09121094 21.72910156 -16.08789062 20.80273438 C-16.07951172 19.85720703 -16.07113281 18.91167969 -16.0625 17.9375 C-16.05573242 16.5134082 -16.05573242 16.5134082 -16.04882812 15.06054688 C-16.0370011 12.70696935 -16.02052025 10.35351523 -16 8 C-18.475 9.485 -18.475 9.485 -21 11 C-20.67 12.98 -20.34 14.96 -20 17 C-22.375 17.625 -22.375 17.625 -25 18 C-27 16 -27 16 -27.0625 12.6875 C-25.82742633 8.40106787 -24.65072792 7.1815021 -20.984375 4.87109375 C-17.91582285 3.52407184 -15.2794789 3.60646253 -12 4 C-11 5 -11 5 -10.88647461 6.85766602 C-10.89171143 7.64842529 -10.89694824 8.43918457 -10.90234375 9.25390625 C-10.90556641 10.10791016 -10.90878906 10.96191406 -10.91210938 11.84179688 C-10.92048828 12.73962891 -10.92886719 13.63746094 -10.9375 14.5625 C-10.94201172 15.46419922 -10.94652344 16.36589844 -10.95117188 17.29492188 C-10.96299775 19.53001314 -10.9794778 21.76497437 -11 24 C-10.34 24 -9.68 24 -9 24 C-8.7525 23.34 -8.505 22.68 -8.25 22 C-7.26919165 19.64605995 -6.21205257 17.54213401 -5 15.3125 C-2.94932427 11.31787516 -2.11514519 7.41514113 -1.39453125 3.00390625 C-1 1 -1 1 0 0 Z " fill="#0E160B" transform="translate(41,48)"/>
<path d="M0 0 C1.32 0 2.64 0 4 0 C4 1.32 4 2.64 4 4 C4.99 4.33 5.98 4.66 7 5 C6.67 5.99 6.34 6.98 6 8 C4.35 8 2.7 8 1 8 C-0.56901859 14.98533796 -0.56901859 14.98533796 -2 22 C3.35662617 18.30137717 5.78997685 14.21292234 8.703125 8.42578125 C10 6 10 6 12 4 C14.625 4.375 14.625 4.375 17 5 C17 5.99 17 6.98 17 8 C16.01 7.505 16.01 7.505 15 7 C15.99 12.445 15.99 12.445 17 18 C18.32 17.34 19.64 16.68 21 16 C19.6471989 20.42734904 17.93685614 22.55040063 14 25 C9.29003174 26.17749207 6.33782222 26.23463569 2 24 C1.34 24.66 0.68 25.32 0 26 C-3.625 26.125 -3.625 26.125 -7 26 C-7.495 24.02 -7.495 24.02 -8 22 C-8.680625 22.804375 -9.36125 23.60875 -10.0625 24.4375 C-13.54732727 27.47745571 -15.40320444 28.0835781 -20 28 C-22.4375 26.0625 -22.4375 26.0625 -24 24 C-24.680625 24.639375 -25.36125 25.27875 -26.0625 25.9375 C-29.52815233 28.37083036 -31.7866573 28.92197514 -36 29 C-37.9375 27.75 -37.9375 27.75 -39 26 C-39 25.01 -39 24.02 -39 23 C-40.65 23 -42.3 23 -44 23 C-44.2475 23.598125 -44.495 24.19625 -44.75 24.8125 C-46.22418254 27.39231944 -47.38713283 28.5815864 -50 30 C-52.75 29.6875 -52.75 29.6875 -55 29 C-55 28.34 -55 27.68 -55 27 C-55.66 27 -56.32 27 -57 27 C-57.66 28.32 -58.32 29.64 -59 31 C-63.875 30.125 -63.875 30.125 -65 29 C-65.07439356 22.33433701 -62.97955572 16.86210264 -60 11 C-58.68 11 -57.36 11 -56 11 C-56.2165625 12.2375 -56.2165625 12.2375 -56.4375 13.5 C-57.05253152 17.32686278 -57.53560637 21.15216707 -58 25 C-55.60457417 20.41845739 -53.49170266 15.9723422 -52 11 C-50.35 11 -48.7 11 -47 11 C-47.78175515 15.84688192 -49.39844278 20.3766367 -51 25 C-48.23793511 23.35058878 -47.14950064 22.5186285 -46.2421875 19.37109375 C-46.12101562 18.40300781 -45.99984375 17.43492188 -45.875 16.4375 C-45.19236641 11.19236641 -45.19236641 11.19236641 -43 9 C-40.875 9.375 -40.875 9.375 -39 10 C-39.46800711 14.05606165 -39.87953208 17.46588679 -42 21 C-38.80687907 18.87125271 -37.90427876 17.04133174 -36.09765625 13.7578125 C-34.444575 11.11052935 -32.6814485 9.56962839 -30 8 C-25.70731707 8.29268293 -25.70731707 8.29268293 -24 10 C-24.15876759 14.20734121 -24.36944178 16.33535755 -27.3125 19.4375 C-30 21 -30 21 -34 21 C-33.67 21.99 -33.34 22.98 -33 24 C-29.31265532 23.78929459 -28.12361691 23.12670734 -25.5 20.4375 C-23.13608065 17.36737832 -21.1470926 14.08691201 -19.2109375 10.734375 C-18 9 -18 9 -15 7 C-12.375 6.8125 -12.375 6.8125 -10 7 C-9 8 -9 8 -8.6875 11.3125 C-9 15 -9 15 -10.625 17.4375 C-13.602598 19.39644605 -15.50355037 19.31785906 -19 19 C-18.34 20.32 -17.68 21.64 -17 23 C-13.63551128 22.71161525 -12.06210766 22.04879887 -9.375 19.9375 C-6.49309142 16.37303412 -5.39913259 13.3446749 -4 9 C-4.66 8.67 -5.32 8.34 -6 8 C-5.67 7.01 -5.34 6.02 -5 5 C-4.01 4.67 -3.02 4.34 -2 4 C-0.79117904 1.99983534 -0.79117904 1.99983534 0 0 Z " fill="#B867A3" transform="translate(97,79)"/>
<path d="M0 0 C3.72284268 0.50308685 5.57327341 1.11103977 8 4 C8.99 4.99 8.99 4.99 10 6 C10.928125 5.79375 11.85625 5.5875 12.8125 5.375 C16 5 16 5 18.8125 6.5 C21.58141711 9.66447669 21.55885649 11.88266061 22 16 C22.53625 16.66 23.0725 17.32 23.625 18 C25 20 25 20 24.9375 23.4375 C23.75326665 27.93758672 22.37943671 30.61109803 18.2734375 33.0078125 C13.5811994 35.082866 9.89530108 35.11728347 4.8828125 34.2265625 C2.91268905 33.81412719 2.91268905 33.81412719 1 35 C-5.53333333 35.23333333 -5.53333333 35.23333333 -8 34 C-8.60714844 34.30550781 -9.21429688 34.61101562 -9.83984375 34.92578125 C-12.29323969 36.14582444 -13.84383072 36.23810129 -16.5625 36.1875 C-17.32691406 36.18105469 -18.09132812 36.17460938 -18.87890625 36.16796875 C-21 36 -21 36 -24 35 C-24.9075 35.495 -25.815 35.99 -26.75 36.5 C-30.78993758 38.36458658 -32.74176892 38.16133575 -37 37 C-39.9375 34.9375 -39.9375 34.9375 -42 33 C-42.33 33.99 -42.66 34.98 -43 36 C-46.21915582 38.6510695 -47.5896445 39.0336357 -51.8125 38.6875 C-52.864375 38.460625 -53.91625 38.23375 -55 38 C-54.9375 36.1875 -54.9375 36.1875 -54 34 C-51.68020619 32.96898053 -49.34570085 31.97063483 -47 31 C-46.195625 29.9171875 -46.195625 29.9171875 -45.375 28.8125 C-44.92125 28.214375 -44.4675 27.61625 -44 27 C-41.3125 26.75 -41.3125 26.75 -39 27 C-38.67 28.65 -38.34 30.3 -38 32 C-32.2505408 32.45995674 -29.55270001 31.49393256 -25 28 C-24.34 27.67 -23.68 27.34 -23 27 C-22.505 28.98 -22.505 28.98 -22 31 C-16.97035748 31.29586132 -14.0661504 31.0496128 -10 28 C-8.24850835 26.41754725 -8.24850835 26.41754725 -7 25 C-7 26.65 -7 28.3 -7 30 C-2.94393835 29.53199289 0.46588679 29.12046792 4 27 C4.99 27.66 5.98 28.32 7 29 C12.27809812 28.80451488 15.25953664 27.74046336 19 24 C20.31165257 21.88339573 20.31165257 21.88339573 21 20 C19.35 20.99 17.7 21.98 16 23 C15.505 17.06 15.505 17.06 15 11 C15.66 10.67 16.32 10.34 17 10 C15.35 9.67 13.7 9.34 12 9 C11.62875 9.639375 11.2575 10.27875 10.875 10.9375 C9.28799893 13.52960174 7.66651334 16.08377443 6 18.625 C5.505 19.38039063 5.01 20.13578125 4.5 20.9140625 C3.11556876 22.8392872 1.8028221 24.46172245 0 26 C-0.66 26 -1.32 26 -2 26 C-1.48594831 21.03083364 -0.76615118 16.70973649 1 12 C1.804375 11.87625 2.60875 11.7525 3.4375 11.625 C4.283125 11.41875 5.12875 11.2125 6 11 C6.33 10.34 6.66 9.68 7 9 C5.68 8.67 4.36 8.34 3 8 C3.33 6.68 3.66 5.36 4 4 C2.05000871 4.19471111 2.05000871 4.19471111 0 5 C-0.69937532 6.31647119 -1.36729133 7.65022151 -2 9 C-2.99 9.33 -3.98 9.66 -5 10 C-5.33 10.66 -5.66 11.32 -6 12 C-5.01 12.33 -4.02 12.66 -3 13 C-5.21366617 19.18726569 -7.86123176 24.90369146 -14 28 C-16.21875 27.6484375 -16.21875 27.6484375 -18 27 C-18.495 25.02 -18.495 25.02 -19 23 C-17.88625 22.71125 -16.7725 22.4225 -15.625 22.125 C-11.99708908 21.30758671 -11.99708908 21.30758671 -10 19 C-9.83322718 15.41656024 -9.83322718 15.41656024 -10 12 C-11.98 12 -13.96 12 -16 12 C-16.495 10.515 -16.495 10.515 -17 9 C-15 8 -15 8 -12.25 8.0625 C-8.70377815 7.99430343 -6.21547493 7.49556974 -3 6 C-2.03122943 3.96756452 -2.03122943 3.96756452 -2 2 C-1.34 2 -0.68 2 0 2 C0 1.34 0 0.68 0 0 Z " fill="#161412" transform="translate(97,75)"/>
<path d="M0 0 C0.66 0 1.32 0 2 0 C2.79953138 3.28696233 3.09658936 4.71023192 2 8 C2.515625 8.350625 3.03125 8.70125 3.5625 9.0625 C5 11 5 11 5.0625 14.375 C3.66419624 19.1456834 2.02627072 20.20626113 -2 23 C-5.43856978 24.71928489 -9.23248896 24.38974252 -13 24 C-16.0625 22.5 -16.0625 22.5 -18 21 C-18.680625 21.66 -19.36125 22.32 -20.0625 23 C-23.68687857 25.46766201 -25.69620206 25.39849981 -30 25 C-30.99 24.67 -31.98 24.34 -33 24 C-33.99 24.66 -34.98 25.32 -36 26 C-39.75698557 26.37569856 -40.75366476 26.1642235 -44 24 C-44.495 24.495 -44.99 24.99 -45.5 25.5 C-48.60253246 27.36151947 -50.56356371 27.18395821 -54.09375 27.0390625 C-56.2082045 26.99573351 -57.99534036 27.33178012 -60 28 C-60 28.99 -60 29.98 -60 31 C-58.329375 30.9690625 -58.329375 30.9690625 -56.625 30.9375 C-53 31 -53 31 -51 32 C-51 32.66 -51 33.32 -51 34 C-50.4225 33.484375 -49.845 32.96875 -49.25 32.4375 C-47 31 -47 31 -44.859375 31.41015625 C-44.24578125 31.60480469 -43.6321875 31.79945312 -43 32 C-43.39832031 32.43570313 -43.79664062 32.87140625 -44.20703125 33.3203125 C-46.77204808 36.20361609 -48.8520866 38.69825667 -50.5625 42.1875 C-52.26097314 45.51059962 -53.79763894 47.0938327 -57 49 C-59.8125 48.75 -59.8125 48.75 -62 48 C-62 47.01 -62 46.02 -62 45 C-61.05125 44.71125 -60.1025 44.4225 -59.125 44.125 C-55.94788422 43.23174891 -55.94788422 43.23174891 -54 41 C-53.83318891 37.91652174 -53.83318891 37.91652174 -54 35 C-56.74761543 33.88060112 -57.77401311 33.90629812 -60.5625 35.0625 C-63.47613102 37.37846312 -64.56556045 39.60264317 -66 43 C-66.99 43 -67.98 43 -69 43 C-68.79503906 42.43152344 -68.59007812 41.86304688 -68.37890625 41.27734375 C-66.70907331 36.4915546 -65.53623064 32.04056799 -65 27 C-65.66 26.67 -66.32 26.34 -67 26 C-66.34 24.35 -65.68 22.7 -65 21 C-64.0925 21.185625 -63.185 21.37125 -62.25 21.5625 C-59.19744896 21.97342033 -57.84989301 21.82738829 -55 21 C-54.195625 21.103125 -53.39125 21.20625 -52.5625 21.3125 C-49.71568449 21.22822291 -49.71568449 21.22822291 -47.4375 18.5 C-44.73905671 14.9305402 -42.88363733 11.04633204 -41 7 C-40.34 7 -39.68 7 -39 7 C-39.875 11.75 -39.875 11.75 -41 14 C-41.039992 15.99960012 -41.04346799 18.00047242 -41 20 C-37.62537285 19.45276317 -35.91765 18.9451 -33 17 C-32.34 17.66 -31.68 18.32 -31 19 C-27.62816458 19.75102535 -27.62816458 19.75102535 -24 19 C-22.43020047 17.31868466 -21.35407806 15.63734051 -20.23828125 13.62890625 C-18.67316483 11.57006225 -17.50487052 11.37441223 -15 11 C-15.20625 11.78375 -15.4125 12.5675 -15.625 13.375 C-15.810625 14.674375 -15.810625 14.674375 -16 16 C-13.62959692 18.37040308 -12.93697247 18.34465793 -9.6875 18.4375 C-5.87448479 18.36995867 -5.15472736 18.12249249 -2 15.625 C-0.02011556 13.19550917 -0.02011556 13.19550917 1 11 C-0.32 11.66 -1.64 12.32 -3 13 C-3.99 7.555 -3.99 7.555 -5 2 C-3.68 2.33 -2.36 2.66 -1 3 C-0.67 2.01 -0.34 1.02 0 0 Z " fill="#0D160B" transform="translate(109,22)"/>
<path d="M0 0 C1.32 0 2.64 0 4 0 C4 0.66 4 1.32 4 2 C5.65 2 7.3 2 9 2 C9.21278058 6.46839215 8.59138085 9.82262526 7 14 C9.62487335 10.85015198 11.25891418 7.51156452 12.9375 3.8046875 C14 2 14 2 17 0 C17.99 0 18.98 0 20 0 C19.67 2.31 19.34 4.62 19 7 C18.01 7 17.02 7 16 7 C15.67 9.31 15.34 11.62 15 14 C16.98 14.33 18.96 14.66 21 15 C20.67 15.99 20.34 16.98 20 18 C13.375 18.25 13.375 18.25 10 16 C9.608125 16.515625 9.21625 17.03125 8.8125 17.5625 C8.214375 18.036875 7.61625 18.51125 7 19 C4.3125 18.6875 4.3125 18.6875 2 18 C1.61718841 12.76824163 2.78145293 9.62197306 5 5 C2.65537684 7.13207942 1.35206315 9.05397038 0.0625 11.9375 C-1.56292821 15.25557338 -2.88022442 17.86072531 -6 20 C-9.4375 20.1875 -9.4375 20.1875 -13 20 C-14.67099977 20.31088368 -16.33871537 20.64080332 -18 21 C-19.32 21 -20.64 21 -22 21 C-22.70125 21.185625 -23.4025 21.37125 -24.125 21.5625 C-26 22 -26 22 -28 21 C-28.50220958 14.72238025 -28.20069234 11.0408308 -24 6 C-23.5565625 5.45472656 -23.113125 4.90945312 -22.65625 4.34765625 C-20.44968895 2.55222332 -19.11663377 2.69058114 -16.3125 2.8125 C-15.10013672 2.85310547 -15.10013672 2.85310547 -13.86328125 2.89453125 C-13.24839844 2.92933594 -12.63351563 2.96414062 -12 3 C-12.2165625 4.2684375 -12.2165625 4.2684375 -12.4375 5.5625 C-13.0058797 9.03593149 -13.51202393 12.51445662 -14 16 C-13.66226563 15.32453125 -13.32453125 14.6490625 -12.9765625 13.953125 C-10.984375 9.96875 -8.9921875 5.984375 -7 2 C-5.68 2 -4.36 2 -3 2 C-3.63156995 7.05255964 -5.13459373 11.29593201 -7 16 C-6.34 16 -5.68 16 -5 16 C-4.71125 15.4225 -4.4225 14.845 -4.125 14.25 C-3 12 -3 12 -1.9375 10.25 C-0.54019308 6.89646338 -0.36096697 3.60966975 0 0 Z " fill="#43B225" transform="translate(65,24)"/>
<path d="M0 0 C2.6875 0.3125 2.6875 0.3125 5 1 C5.10834375 5.44209357 4.70173653 9.61414671 4 14 C5.65 12.35 7.3 10.7 9 9 C8.6984013 12.51865145 7.99394038 14.00757452 5.75 16.8125 C3 19 3 19 0.25 19.375 C-2 19 -2 19 -3 18 C-2.57731286 13.01229179 -1.7672875 8.71276667 0 4 C-3.49136815 7.0735976 -5.06282057 9.93831924 -6.75 14.25 C-7.17796875 15.32765625 -7.6059375 16.4053125 -8.046875 17.515625 C-8.36140625 18.33546875 -8.6759375 19.1553125 -9 20 C-10.32 20 -11.64 20 -13 20 C-13 19.34 -13 18.68 -13 18 C-13.556875 18.515625 -14.11375 19.03125 -14.6875 19.5625 C-17 21 -17 21 -19.625 20.6875 C-20.40875 20.460625 -21.1925 20.23375 -22 20 C-22.66 20 -23.32 20 -24 20 C-24.33 20.33 -24.66 20.66 -25 21 C-28 21.125 -28 21.125 -31 21 C-32 20 -32 20 -32.375 16.4375 C-32.32960363 11.39850283 -30.1751789 7.81021468 -27 4 C-23.57905758 1.71937172 -22.31812778 1.78074993 -18.3125 1.875 C-16.82169922 1.90207031 -16.82169922 1.90207031 -15.30078125 1.9296875 C-14.54152344 1.95289063 -13.78226563 1.97609375 -13 2 C-13.63156995 7.05255964 -15.13459373 11.29593201 -17 16 C-11.9538789 11.79489908 -10.13180603 7.13340841 -8 1 C-6.68 1 -5.36 1 -4 1 C-3.67 1.66 -3.34 2.32 -3 3 C-2.608125 2.484375 -2.21625 1.96875 -1.8125 1.4375 C-1.214375 0.963125 -0.61625 0.48875 0 0 Z " fill="#3FAE23" transform="translate(108,51)"/>
<path d="M0 0 C1.175625 0.0825 2.35125 0.165 3.5625 0.25 C4.2225 1.24 4.8825 2.23 5.5625 3.25 C7.56204746 3.29254356 9.56291636 3.29080783 11.5625 3.25 C12.5525 3.91 13.5425 4.57 14.5625 5.25 C13.9025 6.9 13.2425 8.55 12.5625 10.25 C11.2425 9.92 9.9225 9.59 8.5625 9.25 C9.5525 12.55 10.5425 15.85 11.5625 19.25 C12.5525 18.92 13.5425 18.59 14.5625 18.25 C13.6967843 20.91929007 12.84058762 22.92741836 11 25.0625 C7.34636607 26.8424755 3.54998376 26.9990301 -0.4375 26.25 C-2.234375 24.86328125 -2.234375 24.86328125 -3.4375 23.25 C-3.125 21.0625 -3.125 21.0625 -2.4375 19.25 C-6.17389216 20.49546405 -6.62506513 21.88404953 -8.4375 25.25 C-10.7475 24.59 -13.0575 23.93 -15.4375 23.25 C-15.1075 20.94 -14.7775 18.63 -14.4375 16.25 C-13.4475 16.25 -12.4575 16.25 -11.4375 16.25 C-11.1075 13.94 -10.7775 11.63 -10.4375 9.25 C-11.0975 8.92 -11.7575 8.59 -12.4375 8.25 C-11.303125 8.270625 -10.16875 8.29125 -9 8.3125 C-5.62174326 8.66577477 -5.62174326 8.66577477 -4.4375 7.25 C-4.4375 6.26 -4.4375 5.27 -4.4375 4.25 C-4.4375 -0.02470715 -4.33214023 0.31506474 0 0 Z " fill="#0E190B" transform="translate(95.4375,14.75)"/>
<path d="M0 0 C2.25 0.8125 2.25 0.8125 3.25 1.8125 C3.09123241 6.01984121 2.88055822 8.14785755 -0.0625 11.25 C-2.75 12.8125 -2.75 12.8125 -6.75 12.8125 C-6.75 13.4725 -6.75 14.1325 -6.75 14.8125 C-10.44541586 15.76274979 -13.05458414 15.76274979 -16.75 14.8125 C-16.9975 15.410625 -17.245 16.00875 -17.5 16.625 C-18.97418254 19.20481944 -20.13713283 20.3940864 -22.75 21.8125 C-25.5 21.5 -25.5 21.5 -27.75 20.8125 C-27.75 20.1525 -27.75 19.4925 -27.75 18.8125 C-28.41 18.8125 -29.07 18.8125 -29.75 18.8125 C-30.41 20.1325 -31.07 21.4525 -31.75 22.8125 C-36.625 21.9375 -36.625 21.9375 -37.75 20.8125 C-37.82439356 14.14683701 -35.72955572 8.67460264 -32.75 2.8125 C-31.43 2.8125 -30.11 2.8125 -28.75 2.8125 C-28.894375 3.6375 -29.03875 4.4625 -29.1875 5.3125 C-29.80253152 9.13936278 -30.28560637 12.96466707 -30.75 16.8125 C-28.35457417 12.23095739 -26.24170266 7.7848422 -24.75 2.8125 C-23.1 2.8125 -21.45 2.8125 -19.75 2.8125 C-20.53175515 7.65938192 -22.14844278 12.1891367 -23.75 16.8125 C-20.98793511 15.16308878 -19.89950064 14.3311285 -18.9921875 11.18359375 C-18.87101562 10.21550781 -18.74984375 9.24742188 -18.625 8.25 C-17.94236641 3.00486641 -17.94236641 3.00486641 -15.75 0.8125 C-13.625 1.1875 -13.625 1.1875 -11.75 1.8125 C-12.21800711 5.86856165 -12.62953208 9.27838679 -14.75 12.8125 C-11.55687907 10.68375271 -10.65427876 8.85383174 -8.84765625 5.5703125 C-6.58341202 1.94429861 -4.36747313 -0.29778226 0 0 Z " fill="#C55F7A" transform="translate(69.75,87.1875)"/>
<path d="M0 0 C2.125 0.9375 2.125 0.9375 4 2 C3.27425781 2.55171875 2.54851563 3.1034375 1.80078125 3.671875 C-1.02604836 6.02165247 -3.38372549 8.4949722 -5.8125 11.25 C-6.60269531 12.14203125 -7.39289062 13.0340625 -8.20703125 13.953125 C-8.79871094 14.62859375 -9.39039062 15.3040625 -10 16 C-9.37720331 17.58420129 -8.75166599 19.16732531 -8.125 20.75 C-7.77695312 21.63171875 -7.42890625 22.5134375 -7.0703125 23.421875 C-6.1353291 25.6740248 -5.12219206 27.83649459 -4 30 C-7 32 -7 32 -9.0625 31.875 C-11 31 -11 31 -12.1875 29.4375 C-13.3397583 25.9807251 -13.63744592 22.62554084 -14 19 C-14.66 19 -15.32 19 -16 19 C-16.13277344 19.68707031 -16.26554687 20.37414062 -16.40234375 21.08203125 C-16.57894531 21.98308594 -16.75554688 22.88414063 -16.9375 23.8125 C-17.11152344 24.70582031 -17.28554688 25.59914063 -17.46484375 26.51953125 C-18 29 -18 29 -19 32 C-20.98 32 -22.96 32 -25 32 C-24.35166751 28.46895311 -23.47003094 25.11591437 -22.37109375 21.69921875 C-22.05849609 20.72275391 -21.74589844 19.74628906 -21.42382812 18.74023438 C-21.09833984 17.73283203 -20.77285156 16.72542969 -20.4375 15.6875 C-20.10814453 14.66076172 -19.77878906 13.63402344 -19.43945312 12.57617188 C-18.62872538 10.04999121 -17.81549782 7.52464402 -17 5 C-20.94645464 6.93325268 -20.94645464 6.93325268 -22.8125 10.6875 C-22.874375 11.450625 -22.93625 12.21375 -23 13 C-24.32 12.67 -25.64 12.34 -27 12 C-27.375 9.25 -27.375 9.25 -27 6 C-24.05016595 2.9704407 -22.3656061 2.11614208 -18.15234375 1.7578125 C-15.43370601 1.75079666 -12.71541799 1.86754059 -10 2 C-10.99 5.63 -11.98 9.26 -13 13 C-11.84371094 11.71802734 -11.84371094 11.71802734 -10.6640625 10.41015625 C-9.65119765 9.29412924 -8.63816827 8.17825156 -7.625 7.0625 C-7.11710937 6.49853516 -6.60921875 5.93457031 -6.0859375 5.35351562 C-2.2265625 1.11328125 -2.2265625 1.11328125 0 0 Z " fill="#C95A81" transform="translate(40,15)"/>
<path d="M0 0 C-1.4966684 9.42901093 -4.70893126 18.07892687 -8 27 C-6.02 27 -4.04 27 -2 27 C-1.86722656 26.31292969 -1.73445313 25.62585938 -1.59765625 24.91796875 C-1.42105469 24.01691406 -1.24445312 23.11585937 -1.0625 22.1875 C-0.88847656 21.29417969 -0.71445312 20.40085937 -0.53515625 19.48046875 C0 17 0 17 1 14 C1.66 14 2.32 14 3 14 C3.99 17.63 4.98 21.26 6 25 C4.68 25.33 3.36 25.66 2 26 C1.67 27.32 1.34 28.64 1 30 C2.98 30 4.96 30 7 30 C7.33 30.99 7.66 31.98 8 33 C8.66 33 9.32 33 10 33 C10.66 34.98 11.32 36.96 12 39 C13.32 38.34 14.64 37.68 16 37 C14.35544513 42.60643705 12.66043672 47.39493445 9 52 C8.34 52 7.68 52 7 52 C6.505 42.595 6.505 42.595 6 33 C-0.63019987 32.35284977 -0.63019987 32.35284977 -4 35 C-4.99 34.67 -5.98 34.34 -7 34 C-6.67 33.34 -6.34 32.68 -6 32 C-7.32 31.67 -8.64 31.34 -10 31 C-11.81567764 24.19120886 -9.67529847 19.34952814 -7 13 C-8.010625 12.29875 -9.02125 11.5975 -10.0625 10.875 C-11.73046875 9.51171875 -11.73046875 9.51171875 -13 8 C-12.875 4.6875 -12.875 4.6875 -12 2 C-10 5 -10 5 -9 7 C-8.01 7.33 -7.02 7.66 -6 8 C-6.0825 7.236875 -6.165 6.47375 -6.25 5.6875 C-6 3 -6 3 -4.125 1.1875 C-2 0 -2 0 0 0 Z " fill="#0C1009" transform="translate(23,20)"/>
<path d="M0 0 C2.0625 0.4375 2.0625 0.4375 4 1 C3.49071641 6.73692989 1.87188677 11.0258158 -0.75 16.125 C-1.25273438 17.15947266 -1.25273438 17.15947266 -1.765625 18.21484375 C-3.9442399 22.5308119 -6.24932991 25.83384993 -10 29 C-12.75 29.375 -12.75 29.375 -15 29 C-16 28 -16 28 -16.11352539 26.05053711 C-16.10828857 25.2178833 -16.10305176 24.38522949 -16.09765625 23.52734375 C-16.09443359 22.62822266 -16.09121094 21.72910156 -16.08789062 20.80273438 C-16.07951172 19.85720703 -16.07113281 18.91167969 -16.0625 17.9375 C-16.05573242 16.5134082 -16.05573242 16.5134082 -16.04882812 15.06054688 C-16.0370011 12.70696935 -16.02052025 10.35351523 -16 8 C-18.475 9.485 -18.475 9.485 -21 11 C-20.67 12.98 -20.34 14.96 -20 17 C-22.375 17.625 -22.375 17.625 -25 18 C-27 16 -27 16 -27.0625 12.6875 C-25.82742633 8.40106787 -24.65072792 7.1815021 -20.984375 4.87109375 C-17.91582285 3.52407184 -15.2794789 3.60646253 -12 4 C-11 5 -11 5 -10.88647461 6.85766602 C-10.89171143 7.64842529 -10.89694824 8.43918457 -10.90234375 9.25390625 C-10.90556641 10.10791016 -10.90878906 10.96191406 -10.91210938 11.84179688 C-10.92048828 12.73962891 -10.92886719 13.63746094 -10.9375 14.5625 C-10.94201172 15.46419922 -10.94652344 16.36589844 -10.95117188 17.29492188 C-10.96299775 19.53001314 -10.9794778 21.76497437 -11 24 C-10.34 24 -9.68 24 -9 24 C-8.7525 23.34 -8.505 22.68 -8.25 22 C-7.26919165 19.64605995 -6.21205257 17.54213401 -5 15.3125 C-2.94932427 11.31787516 -2.11514519 7.41514113 -1.39453125 3.00390625 C-1 1 -1 1 0 0 Z " fill="#57BD24" transform="translate(41,48)"/>
<path d="M0 0 C3.60608905 0.79158052 5.00719588 2.94635531 7.5625 5.5625 C10.83176446 7.78535073 10.83176446 7.78535073 14.5625 8.5625 C17.76494192 6.82980872 17.76494192 6.82980872 19.71875 5.42578125 C23.18424696 3.80316509 26.10610197 5.34972876 29.5625 6.5625 C28.9025 7.2225 28.2425 7.8825 27.5625 8.5625 C25.9228125 8.4696875 25.9228125 8.4696875 24.25 8.375 C20.49855929 8.22346652 20.49855929 8.22346652 17.875 10.5625 C15.5773421 13.54324539 14.03927858 16.3573885 12.5546875 19.79296875 C11.5625 21.5625 11.5625 21.5625 8.5625 23.5625 C9.38437261 19.17917943 10.46404282 14.88309823 11.5625 10.5625 C9.9125 10.5625 8.2625 10.5625 6.5625 10.5625 C6.5625 9.9025 6.5625 9.2425 6.5625 8.5625 C5.2425 8.5625 3.9225 8.5625 2.5625 8.5625 C2.665625 9.7175 2.76875 10.8725 2.875 12.0625 C2.90188825 17.08163983 0.84088209 20.82713131 -2.4375 24.5625 C-3.0975 24.5625 -3.7575 24.5625 -4.4375 24.5625 C-3.65574485 19.71561808 -2.03905722 15.1858633 -0.4375 10.5625 C-2.37950557 10.60357608 -2.37950557 10.60357608 -4.4375 11.5625 C-5.91597771 14.26247587 -5.91597771 14.26247587 -7 17.5 C-9.1291623 23.35694153 -9.1291623 23.35694153 -12.4375 25.5625 C-11.93061454 20.6626072 -11.4378877 16.11893866 -9.4375 11.5625 C-8.4475 11.2325 -7.4575 10.9025 -6.4375 10.5625 C-6.52 9.655 -6.6025 8.7475 -6.6875 7.8125 C-6.4375 4.5625 -6.4375 4.5625 -4.75 2.1875 C-2.4375 0.5625 -2.4375 0.5625 0 0 Z " fill="#0C180A" transform="translate(62.4375,15.4375)"/>
<path d="M0 0 C0.99 0.66 1.98 1.32 3 2 C3.375 4.4375 3.375 4.4375 3 7 C1.5 8.8125 1.5 8.8125 0 10 C-0.99 9.67 -1.98 9.34 -3 9 C-2.34 7.02 -1.68 5.04 -1 3 C-2.98 3.66 -4.96 4.32 -7 5 C-6.72073101 9.00285558 -6.48303305 10.56409213 -3.4375 13.3125 C-0.82187126 16.19639835 -0.58404615 16.80581589 -0.4375 20.5 C-0.67127659 24.75048345 -1.8477902 27.0332143 -5 30 C-8.4627951 31.73139755 -12.21380547 31.46991776 -16 31 C-18.625 29.4375 -18.625 29.4375 -20 27 C-19.67857143 20.67857143 -19.67857143 20.67857143 -18 19 C-16.33382885 18.95936168 -14.66611905 18.957279 -13 19 C-13.185625 19.969375 -13.37125 20.93875 -13.5625 21.9375 C-13.706875 22.948125 -13.85125 23.95875 -14 25 C-12.81575674 26.41577477 -12.81575674 26.41577477 -9.4375 26.0625 C-7.7359375 26.0315625 -7.7359375 26.0315625 -6 26 C-6.19378374 21.25229842 -6.73127698 18.95663377 -10.0625 15.5 C-12.49742667 12.87051502 -12.98541199 12.07050871 -13.75 8.375 C-12.93756756 4.719054 -11.84198881 3.07426445 -8.7890625 0.875 C-5.77436482 -0.59943729 -3.26344647 -0.43102123 0 0 Z " fill="#DBA32C" transform="translate(31,81)"/>
<path d="M0 0 C1.49080078 0.17982422 1.49080078 0.17982422 3.01171875 0.36328125 C3.77097656 0.47027344 4.53023437 0.57726563 5.3125 0.6875 C0.73481947 23.57590263 0.73481947 23.57590263 -6.6875 28.6875 C-10.5 29.1875 -10.5 29.1875 -13.6875 28.6875 C-14.6875 27.6875 -14.6875 27.6875 -14.75 25.125 C-14.729375 24.320625 -14.70875 23.51625 -14.6875 22.6875 C-13.6975 22.3575 -12.7075 22.0275 -11.6875 21.6875 C-11.6875 22.3475 -11.6875 23.0075 -11.6875 23.6875 C-9.25830135 23.82190778 -9.25830135 23.82190778 -6.6875 22.6875 C-4.66622513 19.16606019 -3.6875 15.73485389 -3.6875 11.6875 C-3.02083333 10.02083333 -2.35416667 8.35416667 -1.6875 6.6875 C-1.6875 5.6975 -1.6875 4.7075 -1.6875 3.6875 C-4.80953968 4.33715586 -4.80953968 4.33715586 -5.71484375 6.71875 C-6.32130357 8.36373973 -6.92547376 10.0095754 -7.52734375 11.65625 C-8.6875 13.6875 -8.6875 13.6875 -10.81640625 14.46875 C-11.43386719 14.5409375 -12.05132812 14.613125 -12.6875 14.6875 C-13.19382171 9.37112203 -11.93458376 6.86232197 -8.6875 2.6875 C-8.2646875 2.12804688 -7.841875 1.56859375 -7.40625 0.9921875 C-4.86930518 -0.93358425 -3.09394087 -0.40039235 0 0 Z " fill="#41B525" transform="translate(70.6875,54.3125)"/>
<path d="M0 0 C2.6875 0.3125 2.6875 0.3125 5 1 C5.10834375 5.44209357 4.70173653 9.61414671 4 14 C5.65 12.35 7.3 10.7 9 9 C8.6984013 12.51865145 7.99394038 14.00757452 5.75 16.8125 C3 19 3 19 0.25 19.375 C-2 19 -2 19 -3 18 C-2.57731286 13.01229179 -1.7672875 8.71276667 0 4 C-3.49136815 7.0735976 -5.06282057 9.93831924 -6.75 14.25 C-7.17796875 15.32765625 -7.6059375 16.4053125 -8.046875 17.515625 C-8.36140625 18.33546875 -8.6759375 19.1553125 -9 20 C-10.32 20 -11.64 20 -13 20 C-13 19.34 -13 18.68 -13 18 C-13.99 18.33 -14.98 18.66 -16 19 C-16.33 18.01 -16.66 17.02 -17 16 C-16.2575 15.38125 -15.515 14.7625 -14.75 14.125 C-11.06419726 10.50220244 -9.66486016 5.78996079 -8 1 C-6.68 1 -5.36 1 -4 1 C-3.67 1.66 -3.34 2.32 -3 3 C-2.608125 2.484375 -2.21625 1.96875 -1.8125 1.4375 C-1.214375 0.963125 -0.61625 0.48875 0 0 Z " fill="#41B024" transform="translate(108,51)"/>
<path d="M0 0 C1.21236328 0.04060547 1.21236328 0.04060547 2.44921875 0.08203125 C3.06410156 0.11683594 3.67898437 0.15164062 4.3125 0.1875 C4.0959375 1.4559375 4.0959375 1.4559375 3.875 2.75 C3.3066203 6.22343149 2.80047607 9.70195662 2.3125 13.1875 C2.9725 13.1875 3.6325 13.1875 4.3125 13.1875 C3.9825 14.5075 3.6525 15.8275 3.3125 17.1875 C0.159132 17.88824844 -2.41474974 18.1875 -5.6875 18.1875 C-6.38875 18.373125 -7.09 18.55875 -7.8125 18.75 C-9.6875 19.1875 -9.6875 19.1875 -11.6875 18.1875 C-12.18970958 11.90988025 -11.88819234 8.2283308 -7.6875 3.1875 C-7.2440625 2.64222656 -6.800625 2.09695312 -6.34375 1.53515625 C-4.13718895 -0.26027668 -2.80413377 -0.12191886 0 0 Z " fill="#B4A028" transform="translate(48.6875,26.8125)"/>
<path d="M0 0 C1 1 1 1 1.3125 4.3125 C1 8 1 8 -0.625 10.4375 C-3.602598 12.39644605 -5.50355037 12.31785906 -9 12 C-9 12.99 -9 13.98 -9 15 C-9.721875 15.2475 -10.44375 15.495 -11.1875 15.75 C-14.09177164 16.87658007 -14.09177164 16.87658007 -16.375 19.0625 C-19.65774494 21.4854784 -21.94563829 21.92491923 -26 22 C-27.9375 20.6875 -27.9375 20.6875 -29 19 C-29 18.34 -29 17.68 -29 17 C-25.30458414 16.04975021 -22.69541586 16.04975021 -19 17 C-15.19441801 12.81516757 -11.98627478 8.61516791 -9.17578125 3.69921875 C-6.65613718 0.05787267 -4.14025026 -0.32686186 0 0 Z " fill="#C15E8D" transform="translate(87,86)"/>
<path d="M0 0 C1.75 0.75 1.75 0.75 2.75 1.75 C3.15030877 5.35277895 3.19262507 7.1270462 1.0625 10.125 C-1.63790237 12.02258004 -3.02060081 12.10882213 -6.25 11.75 C-5.92 12.74 -5.59 13.73 -5.25 14.75 C-1.785 14.255 -1.785 14.255 1.75 13.75 C1.4375 15.625 1.4375 15.625 0.75 17.75 C-2.71923881 20.06282587 -4.17205575 20.17478586 -8.25 19.75 C-10.125 18.6875 -10.125 18.6875 -11.25 16.75 C-12.05935179 10.73767243 -10.6492205 7.52728286 -7.25 2.75 C-3.34756098 -0.37195122 -3.34756098 -0.37195122 0 0 Z " fill="#3CA924" transform="translate(53.25,55.25)"/>
<path d="M0 0 C2.0625 0.4375 2.0625 0.4375 4 1 C3.49827949 6.80779503 1.80306506 11.10504348 -0.875 16.25 C-1.40287109 17.30960938 -1.40287109 17.30960938 -1.94140625 18.390625 C-3.66352413 21.77084152 -5.19738797 24.39352103 -8 27 C-8 26.34 -8 25.68 -8 25 C-9.32 25 -10.64 25 -12 25 C-12 18.4 -12 11.8 -12 5 C-11.67 5 -11.34 5 -11 5 C-11 11.27 -11 17.54 -11 24 C-10.34 24 -9.68 24 -9 24 C-8.7525 23.34 -8.505 22.68 -8.25 22 C-7.26919165 19.64605995 -6.21205257 17.54213401 -5 15.3125 C-2.94932427 11.31787516 -2.11514519 7.41514113 -1.39453125 3.00390625 C-1 1 -1 1 0 0 Z " fill="#3EAF25" transform="translate(41,48)"/>
<path d="M0 0 C0.94875 0.04125 1.8975 0.0825 2.875 0.125 C2.875 1.115 2.875 2.105 2.875 3.125 C1.885 3.125 0.895 3.125 -0.125 3.125 C0.865 6.425 1.855 9.725 2.875 13.125 C3.865 12.795 4.855 12.465 5.875 12.125 C4.99769491 14.83002403 4.15831029 16.80900006 2.25 18.9375 C-1.28483819 20.7049191 -4.19918669 20.32129067 -8.125 20.125 C-7.3 19.465 -6.475 18.805 -5.625 18.125 C-2.27194485 14.10133382 -2.69339023 12.21799533 -3.125 7.125 C-3.785 7.125 -4.445 7.125 -5.125 7.125 C-5.25 4.75 -5.25 4.75 -5.125 2.125 C-3.125 0.125 -3.125 0.125 0 0 Z " fill="#41B824" transform="translate(104.125,20.875)"/>
<path d="M0 0 C1.2065625 0.0309375 1.2065625 0.0309375 2.4375 0.0625 C2.251875 1.031875 2.06625 2.00125 1.875 3 C1.730625 4.010625 1.58625 5.02125 1.4375 6.0625 C2.62174326 7.47827477 2.62174326 7.47827477 6 7.125 C7.7015625 7.0940625 7.7015625 7.0940625 9.4375 7.0625 C9.4375 5.4125 9.4375 3.7625 9.4375 2.0625 C9.7675 2.7225 10.0975 3.3825 10.4375 4.0625 C11.7575 4.0625 13.0775 4.0625 14.4375 4.0625 C13.5717843 6.73179007 12.71558762 8.73991836 10.875 10.875 C7.10573713 12.71130755 3.54557978 12.7246081 -0.5625 12.0625 C-3.1875 10.5 -3.1875 10.5 -4.5625 8.0625 C-4.15769868 0.10140728 -4.15769868 0.10140728 0 0 Z " fill="#D16667" transform="translate(15.5625,99.9375)"/>
<path d="M0 0 C-0.45261358 1.43931117 -0.91232979 2.87638999 -1.375 4.3125 C-1.63023438 5.11300781 -1.88546875 5.91351563 -2.1484375 6.73828125 C-3 9 -3 9 -5 12 C-5.99 12 -6.98 12 -8 12 C-7.67 9.03 -7.34 6.06 -7 3 C-9.53884453 4.15565651 -9.53884453 4.15565651 -12 6 C-12.88658466 8.59122743 -12.88658466 8.59122743 -13 11 C-14.32 10.67 -15.64 10.34 -17 10 C-17.375 7.25 -17.375 7.25 -17 4 C-12.08061793 -1.05233834 -6.70874672 -0.42974178 0 0 Z " fill="#B765BC" transform="translate(30,17)"/>
<path d="M0 0 C2.1875 0.875 2.1875 0.875 3.1875 1.875 C3.02873241 6.08234121 2.81805822 8.21035755 -0.125 11.3125 C-2.8125 12.875 -2.8125 12.875 -6.8125 12.875 C-6.8125 11.225 -6.8125 9.575 -6.8125 7.875 C-8.7925 8.865 -8.7925 8.865 -10.8125 9.875 C-9.32231191 4.65934169 -5.90886362 -0.26261616 0 0 Z " fill="#D1715E" transform="translate(69.8125,87.125)"/>
<path d="M0 0 C1.32 0 2.64 0 4 0 C4 1.32 4 2.64 4 4 C4.99 4.33 5.98 4.66 7 5 C6.67 5.99 6.34 6.98 6 8 C4.35 8 2.7 8 1 8 C0.34 10.97 -0.32 13.94 -1 17 C-3.31 17.66 -5.62 18.32 -8 19 C-6.68 15.7 -5.36 12.4 -4 9 C-4.66 8.67 -5.32 8.34 -6 8 C-5.67 7.01 -5.34 6.02 -5 5 C-4.01 4.67 -3.02 4.34 -2 4 C-0.79117904 1.99983534 -0.79117904 1.99983534 0 0 Z " fill="#C77291" transform="translate(97,79)"/>
<path d="M0 0 C0.33 2.64 0.66 5.28 1 8 C-0.98 8 -2.96 8 -5 8 C-5.33 6.68 -5.66 5.36 -6 4 C-6.680625 4.804375 -7.36125 5.60875 -8.0625 6.4375 C-11.52541475 9.45834052 -13.44324917 10 -18 10 C-19.9375 8.75 -19.9375 8.75 -21 7 C-21 6.01 -21 5.02 -21 4 C-16.34482759 3.87068966 -16.34482759 3.87068966 -14 4.75 C-11.76129373 5.26101307 -11.76129373 5.26101307 -9.5 3.1875 C-8.675 2.465625 -7.85 1.74375 -7 1 C-3.49484536 -1.16494845 -3.49484536 -1.16494845 0 0 Z " fill="#B85CB3" transform="translate(95,97)"/>
<path d="M0 0 C-0.33 0.66 -0.66 1.32 -1 2 C-2.423125 2.12375 -2.423125 2.12375 -3.875 2.25 C-7.23901156 2.68088224 -7.23901156 2.68088224 -8.8125 5.75 C-9.82850129 8.5306351 -10.57030036 11.07804245 -11 14 C-10.34 14.33 -9.68 14.66 -9 15 C-9.33 15.99 -9.66 16.98 -10 18 C-11.66611905 18.042721 -13.33382885 18.04063832 -15 18 C-16 17 -16 17 -16.375 13.4375 C-16.32960363 8.39850283 -14.1751789 4.81021468 -11 1 C-6.8204355 -1.78637633 -4.85331323 -0.79562512 0 0 Z " fill="#43B524" transform="translate(92,54)"/>
<path d="M0 0 C0.99 0.33 1.98 0.66 3 1 C2.48522148 4.77504244 1.69128285 7.6174343 0 11 C0.33 11.66 0.66 12.32 1 13 C-1.25 15.0625 -1.25 15.0625 -4 17 C-6.99212986 16.8186588 -9.37636139 15.40552069 -12 14 C-11.625 12.0625 -11.625 12.0625 -11 10 C-10.34 9.67 -9.68 9.34 -9 9 C-8.67 9.66 -8.34 10.32 -8 11 C-5.64270057 8.80861021 -3.97942902 6.56068027 -2.3125 3.8125 C-1.87550781 3.09707031 -1.43851563 2.38164063 -0.98828125 1.64453125 C-0.66214844 1.10183594 -0.33601563 0.55914062 0 0 Z " fill="#3AA323" transform="translate(67,57)"/>
<path d="M0 0 C2 2 2 2 2 5 C3.32 4.34 4.64 3.68 6 3 C4.54872961 6.38629758 2.67349063 8.48853911 0 11 C-0.5775 11.5775 -1.155 12.155 -1.75 12.75 C-2.1625 13.1625 -2.575 13.575 -3 14 C-4.98 13.34 -6.96 12.68 -9 12 C-8.67 9.69 -8.34 7.38 -8 5 C-7.01 5 -6.02 5 -5 5 C-4.67 3.68 -4.34 2.36 -4 1 C-3.67 2.32 -3.34 3.64 -3 5 C-2.01 3.35 -1.02 1.7 0 0 Z " fill="#3DA826" transform="translate(89,26)"/>
<path d="M0 0 C-0.48578543 3.12290635 -0.9986012 5.99580359 -2 9 C-3.32 9 -4.64 9 -6 9 C-5.67 7.02 -5.34 5.04 -5 3 C-5.99 3.33 -6.98 3.66 -8 4 C-8.680625 5.485 -8.680625 5.485 -9.375 7 C-11 10 -11 10 -13.6875 10.875 C-14.450625 10.91625 -15.21375 10.9575 -16 11 C-13.59476552 1.59771974 -9.16122179 -0.898159 0 0 Z " fill="#D46B66" transform="translate(53,27)"/>
<path d="M0 0 C0 0.99 0 1.98 0 3 C0.66 3.33 1.32 3.66 2 4 C1.34 4 0.68 4 0 4 C0.33 4.99 0.66 5.98 1 7 C4.465 6.505 4.465 6.505 8 6 C7.6875 7.875 7.6875 7.875 7 10 C3.53076119 12.31282587 2.07794425 12.42478586 -2 12 C-3.875 10.9375 -3.875 10.9375 -5 9 C-5.375 5.4375 -5.375 5.4375 -5 2 C-2 0 -2 0 0 0 Z " fill="#45B524" transform="translate(47,63)"/>
<path d="M0 0 C0.33 0.66 0.66 1.32 1 2 C1.66 2 2.32 2 3 2 C3.33 4.64 3.66 7.28 4 10 C1.69 11.65 -0.62 13.3 -3 15 C-3.99 14.01 -4.98 13.02 -6 12 C-4.43358249 7.69235185 -2.31663844 3.93828536 0 0 Z " fill="#3FAA25" transform="translate(98,26)"/>
<path d="M0 0 C1.65 0 3.3 0 5 0 C4.48594831 4.96916636 3.76615118 9.29026351 2 14 C0.02 14 -1.96 14 -4 14 C-3.21824485 9.15311808 -1.60155722 4.6233633 0 0 Z " fill="#CC8A28" transform="translate(19,33)"/>
<path d="M0 0 C1.32 0 2.64 0 4 0 C3.22225866 5.05531868 2.14051606 10.01716284 1 15 C-0.65 15 -2.3 15 -4 15 C-4.59720137 9.17728663 -2.528243 5.0790596 0 0 Z " fill="#DD8945" transform="translate(37,90)"/>
<path d="M0 0 C0.33 0 0.66 0 1 0 C1.61832061 8.03816794 1.61832061 8.03816794 -0.6875 11.625 C-3 13 -3 13 -5.5625 12.625 C-6.7690625 12.315625 -6.7690625 12.315625 -8 12 C-8.99 12.66 -9.98 13.32 -11 14 C-10.63692621 11.31325398 -10.33095772 9.44127696 -8.6875 7.25 C-7 6 -7 6 -5 5.625 C-2.02507025 4.69533445 -1.42604559 2.64837038 0 0 Z " fill="#B160A9" transform="translate(107,91)"/>
<path d="M0 0 C2.125 0.9375 2.125 0.9375 4 2 C3.34 2.474375 2.68 2.94875 2 3.4375 C-1.44719011 6.38197488 -4.17738633 9.66332579 -7.03515625 13.171875 C-9 15 -9 15 -13 15 C-11.4307213 11.34119259 -9.1680204 8.74472372 -6.5 5.8125 C-5.7059375 4.93207031 -4.911875 4.05164063 -4.09375 3.14453125 C-2 1 -2 1 0 0 Z " fill="#AD5DB3" transform="translate(40,15)"/>
<path d="M0 0 C1.1446875 0.3403125 1.1446875 0.3403125 2.3125 0.6875 C2.3125 1.3475 2.3125 2.0075 2.3125 2.6875 C1.384375 3.04134766 1.384375 3.04134766 0.4375 3.40234375 C-2.83890019 5.38384313 -3.31372826 8.2071101 -4.5625 11.69140625 C-5.6875 13.6875 -5.6875 13.6875 -7.8125 14.46484375 C-8.740625 14.57505859 -8.740625 14.57505859 -9.6875 14.6875 C-10.19382171 9.37112203 -8.93458376 6.86232197 -5.6875 2.6875 C-5.213125 2.048125 -4.73875 1.40875 -4.25 0.75 C-2.6875 -0.3125 -2.6875 -0.3125 0 0 Z " fill="#47B325" transform="translate(67.6875,54.3125)"/>
<path d="M0 0 C0.66 0.33 1.32 0.66 2 1 C2 1.99 2 2.98 2 4 C0 5.6875 0 5.6875 -2 7 C-1.67 8.98 -1.34 10.96 -1 13 C-3.375 13.625 -3.375 13.625 -6 14 C-8 12 -8 12 -8.0625 8.6875 C-6.66021133 3.82073343 -4.26500882 2.41646714 0 0 Z " fill="#47AF26" transform="translate(22,52)"/>
<path d="M0 0 C1.65 0 3.3 0 5 0 C4.21824485 4.84688192 2.60155722 9.3766367 1 14 C-0.65 13.67 -2.3 13.34 -4 13 C-3.52140759 11.39566191 -3.04210442 9.79153584 -2.5625 8.1875 C-2.29566406 7.29417969 -2.02882812 6.40085937 -1.75390625 5.48046875 C-1.19612127 3.64526945 -0.60655425 1.81966274 0 0 Z " fill="#D76D6D" transform="translate(45,90)"/>
<path d="M0 0 C1.65 0.99 3.3 1.98 5 3 C4.56680729 8.41490891 3.43406135 11.75792422 0 16 C-0.99 16.33 -1.98 16.66 -3 17 C-2.36843005 11.94744036 -0.86540627 7.70406799 1 3 C0.01 2.67 -0.98 2.34 -2 2 C-1.34 1.34 -0.68 0.68 0 0 Z " fill="#071105" transform="translate(94,50)"/>
<path d="M0 0 C1.74216797 0.04060547 1.74216797 0.04060547 3.51953125 0.08203125 C4.39996094 0.11683594 5.28039062 0.15164062 6.1875 0.1875 C5.8575 1.1775 5.5275 2.1675 5.1875 3.1875 C4.37925781 3.19007812 3.57101563 3.19265625 2.73828125 3.1953125 C-3.34136332 3.21279052 -3.34136332 3.21279052 -8.72265625 5.58984375 C-10.23842669 7.38800442 -10.23842669 7.38800442 -11.8125 10.1875 C-13.8125 7.1875 -13.8125 7.1875 -13.8125 5.1875 C-13.1525 5.1875 -12.4925 5.1875 -11.8125 5.1875 C-11.8125 4.5275 -11.8125 3.8675 -11.8125 3.1875 C-7.87993146 0.12883558 -4.89581268 -0.14835796 0 0 Z " fill="#181613" transform="translate(50.8125,23.8125)"/>
<path d="M0 0 C0.99 0.66 1.98 1.32 3 2 C3.375 4.4375 3.375 4.4375 3 7 C1.5 8.8125 1.5 8.8125 0 10 C-0.99 9.67 -1.98 9.34 -3 9 C-2.34 7.02 -1.68 5.04 -1 3 C-6.13725982 2.51510163 -6.13725982 2.51510163 -10.4375 5 C-10.953125 5.66 -11.46875 6.32 -12 7 C-11.64393309 4.41851492 -11.16671807 3.17954253 -9.375 1.25 C-6.10070334 -0.47331403 -3.6474931 -0.33159028 0 0 Z " fill="#DBAD24" transform="translate(31,81)"/>
<path d="M0 0 C0.33 0 0.66 0 1 0 C1 6.27 1 12.54 1 19 C1.66 19 2.32 19 3 19 C3.2475 18.2575 3.495 17.515 3.75 16.75 C5.09147301 13.79875938 6.60905526 12.15185026 9 10 C9.65234375 11.734375 9.65234375 11.734375 10 14 C9.00390625 16.140625 9.00390625 16.140625 7.5625 18.25 C7.08941406 18.95640625 6.61632813 19.6628125 6.12890625 20.390625 C5.75636719 20.92171875 5.38382813 21.4528125 5 22 C4.67 21.34 4.34 20.68 4 20 C2.68 20 1.36 20 0 20 C0 13.4 0 6.8 0 0 Z " fill="#4EAA26" transform="translate(29,53)"/>
<path d="M0 0 C-0.45261358 1.43931117 -0.91232979 2.87638999 -1.375 4.3125 C-1.63023438 5.11300781 -1.88546875 5.91351563 -2.1484375 6.73828125 C-3 9 -3 9 -5 12 C-5.99 12 -6.98 12 -8 12 C-8.17942163 8.05272412 -8.09350689 5.4019487 -6 2 C-6.99 1.67 -7.98 1.34 -9 1 C-5.846632 0.29925156 -3.27275026 0 0 0 Z " fill="#BE62B8" transform="translate(30,17)"/>
<path d="M0 0 C-0.99 0.495 -0.99 0.495 -2 1 C-1.938125 1.928125 -1.87625 2.85625 -1.8125 3.8125 C-2 7 -2 7 -3.375 8.875 C-5 10 -5 10 -7 10 C-7.33 9.01 -7.66 8.02 -8 7 C-8.99 7.33 -9.98 7.66 -11 8 C-9.04672006 1.97738686 -6.47971237 -0.53997603 0 0 Z " fill="#C16279" transform="translate(87,86)"/>
<path d="M0 0 C0.94875 0.04125 1.8975 0.0825 2.875 0.125 C2.875 1.115 2.875 2.105 2.875 3.125 C1.885 3.125 0.895 3.125 -0.125 3.125 C0.205 5.435 0.535 7.745 0.875 10.125 C-0.115 10.785 -1.105 11.445 -2.125 12.125 C-2.455 10.475 -2.785 8.825 -3.125 7.125 C-3.785 7.125 -4.445 7.125 -5.125 7.125 C-5.25 4.75 -5.25 4.75 -5.125 2.125 C-3.125 0.125 -3.125 0.125 0 0 Z " fill="#4DB923" transform="translate(104.125,20.875)"/>
<path d="M0 0 C0.66 0.66 1.32 1.32 2 2 C1.63723355 4.82957829 0.90305236 7.29084291 0 10 C1.65 10 3.3 10 5 10 C4.34 11.32 3.68 12.64 3 14 C3.66 14.33 4.32 14.66 5 15 C2 16 2 16 -0.125 15.5 C-2 14 -2 14 -2.9375 10.8125 C-3.01245688 6.24013041 -2.05238689 4.0226783 0 0 Z " fill="#181810" transform="translate(15,37)"/>
<path d="M0 0 C6.0546875 -0.1953125 6.0546875 -0.1953125 8 0 C10 2 10 2 10.125 5.625 C10.08375 6.73875 10.0425 7.8525 10 9 C8.68 9 7.36 9 6 9 C3.875 6.1875 3.875 6.1875 2 3 C1.34 2.01 0.68 1.02 0 0 Z " fill="#D98C3A" transform="translate(20,95)"/>
<path d="M0 0 C-0.99 2.97 -1.98 5.94 -3 9 C-4.32 9 -5.64 9 -7 9 C-7 7.35 -7 5.7 -7 4 C-8.98 4.99 -8.98 4.99 -11 6 C-10.375 3.5625 -10.375 3.5625 -9 1 C-5.88090554 0.13727175 -3.2275749 0 0 0 Z " fill="#BF616A" transform="translate(70,91)"/>
<path d="M0 0 C1.32 0.33 2.64 0.66 4 1 C3.25 7.75 3.25 7.75 1 10 C0.01 9.67 -0.98 9.34 -2 9 C-2.33 9.99 -2.66 10.98 -3 12 C-3.2954439 6.97745369 -2.98514628 4.10457614 0 0 Z " fill="#BD675A" transform="translate(54,88)"/>
<path d="M0 0 C0.99 0.33 1.98 0.66 3 1 C2.54961229 5.84166786 1.40027839 8.49668287 -2 12 C-2.66 12 -3.32 12 -4 12 C-4.50423019 6.70558305 -3.18923033 4.18586481 0 0 Z " fill="#091807" transform="translate(67,57)"/>
<path d="M0 0 C0.99 0 1.98 0 3 0 C2.58894145 5.24099655 1.75960806 8.24039194 -2 12 C-2.66 12 -3.32 12 -4 12 C-3.53898164 7.29761275 -2.96823597 3.76737643 0 0 Z " fill="#091607" transform="translate(85,56)"/>
<path d="M0 0 C0.99 0 1.98 0 3 0 C5.25 2.3125 5.25 2.3125 7 5 C6.67 5.99 6.34 6.98 6 8 C4.35 8.33 2.7 8.66 1 9 C-1.14809171 5.77786243 -1.29386153 4.72224599 -1 1 C-0.67 0.67 -0.34 0.34 0 0 Z " fill="#C5951E" transform="translate(29,38)"/>
<path d="M0 0 C1.03274898 2.68514734 1.07566569 3.7921588 0.07421875 6.54296875 C-0.38339844 7.41566406 -0.84101562 8.28835937 -1.3125 9.1875 C-1.76238281 10.06792969 -2.21226563 10.94835938 -2.67578125 11.85546875 C-4 14 -4 14 -6 15 C-5.49311454 10.1001072 -5.0003877 5.55643866 -3 1 C-2.01 0.67 -1.02 0.34 0 0 Z " fill="#0D1107" transform="translate(56,26)"/>
<path d="M0 0 C0.33 0.99 0.66 1.98 1 3 C3.97 2.34 6.94 1.68 10 1 C10 1.99 10 2.98 10 4 C9.34 4 8.68 4 8 4 C7.34 5.32 6.68 6.64 6 8 C1.125 7.125 1.125 7.125 0 6 C-0.04080783 4.00041636 -0.04254356 1.99954746 0 0 Z " fill="#C3587C" transform="translate(32,102)"/>
<path d="M0 0 C3 1 3 1 4 3 C2.68 3.33 1.36 3.66 0 4 C-0.12375 5.134375 -0.2475 6.26875 -0.375 7.4375 C-0.58125 8.613125 -0.7875 9.78875 -1 11 C-1.99 11.495 -1.99 11.495 -3 12 C-3.33 12.66 -3.66 13.32 -4 14 C-5.56935594 10.86128812 -5.35201103 8.46144178 -5 5 C-2.5 2.0625 -2.5 2.0625 0 0 Z " fill="#281F1B" transform="translate(13,97)"/>
<path d="M0 0 C0.99 0.33 1.98 0.66 3 1 C3.33 3.64 3.66 6.28 4 9 C2.02 9 0.04 9 -2 9 C-2.33 6.69 -2.66 4.38 -3 2 C-2.01 1.34 -1.02 0.68 0 0 Z " fill="#C467B8" transform="translate(92,96)"/>
<path d="M0 0 C0.80824219 0.19464844 1.61648437 0.38929687 2.44921875 0.58984375 C3.06410156 0.74582031 3.67898437 0.90179688 4.3125 1.0625 C4.3125 1.7225 4.3125 2.3825 4.3125 3.0625 C1.39541076 5.04612069 0.18869096 5.0501191 -3.4375 4.6875 C-4.51 4.48125 -5.5825 4.275 -6.6875 4.0625 C-7.0175 2.7425 -7.3475 1.4225 -7.6875 0.0625 C-4.39053895 -1.03648702 -3.28255097 -0.80874444 0 0 Z " fill="#C15BA6" transform="translate(65.6875,102.9375)"/>
<path d="M0 0 C0.99 0 1.98 0 3 0 C2.49516338 4.34159496 1.68099266 7.49408652 -1 11 C-1.99 11 -2.98 11 -4 11 C-3.49516338 6.65840504 -2.68099266 3.50591348 0 0 Z " fill="#19120B" transform="translate(45,30)"/>
<path d="M0 0 C1.9375 1.1875 1.9375 1.1875 3.9375 3.1875 C4.0625 6.8125 4.0625 6.8125 3.9375 10.1875 C2.2875 10.5175 0.6375 10.8475 -1.0625 11.1875 C-1.0625 10.5275 -1.0625 9.8675 -1.0625 9.1875 C-0.0725 9.1875 0.9175 9.1875 1.9375 9.1875 C1.2775 7.2075 0.6175 5.2275 -0.0625 3.1875 C-3.0325 2.6925 -3.0325 2.6925 -6.0625 2.1875 C-4.59864986 -0.74020028 -3.01240356 -1.18670443 0 0 Z " fill="#0C0B06" transform="translate(21.0625,96.8125)"/>
<path d="M0 0 C2.1875 0.3125 2.1875 0.3125 4 1 C3.01 1.33 2.02 1.66 1 2 C0.21625 2.825 -0.5675 3.65 -1.375 4.5 C-4.0971156 7.09249105 -5.33929183 7.68622501 -9 8 C-8.67 5.69 -8.34 3.38 -8 1 C-6.68 1 -5.36 1 -4 1 C-3.67 1.66 -3.34 2.32 -3 3 C-2.5875 2.484375 -2.175 1.96875 -1.75 1.4375 C-1.1725 0.963125 -0.595 0.48875 0 0 Z " fill="#50BB25" transform="translate(108,51)"/>
<path d="M0 0 C0.66 0.33 1.32 0.66 2 1 C1.67 1.70125 1.34 2.4025 1 3.125 C-0.09295056 6.26723285 -0.07335281 8.69912374 0 12 C-0.33 12.66 -0.66 13.32 -1 14 C-1.66 14 -2.32 14 -3 14 C-4.43304064 11.13391871 -4.30644155 9.18699217 -4 6 C-2 2.625 -2 2.625 0 0 Z " fill="#232720" transform="translate(15,53)"/>
<path d="M0 0 C0.91007812 0.00902344 1.82015625 0.01804688 2.7578125 0.02734375 C3.45648438 0.03894531 4.15515625 0.05054688 4.875 0.0625 C3.76171875 2.046875 3.76171875 2.046875 1.875 4.0625 C-1.04296875 4.453125 -1.04296875 4.453125 -4.3125 4.3125 C-5.39917969 4.27640625 -6.48585938 4.2403125 -7.60546875 4.203125 C-8.43691406 4.15671875 -9.26835938 4.1103125 -10.125 4.0625 C-6.74032128 0.52397224 -4.89499091 -0.06275629 0 0 Z " fill="#172016" transform="translate(89.125,49.9375)"/>
<path d="M0 0 C0.598125 0.226875 1.19625 0.45375 1.8125 0.6875 C0.8225 0.6875 -0.1675 0.6875 -1.1875 0.6875 C-1.1875 1.3475 -1.1875 2.0075 -1.1875 2.6875 C-0.1975 2.6875 0.7925 2.6875 1.8125 2.6875 C1.4825 4.0075 1.1525 5.3275 0.8125 6.6875 C-0.5075 6.6875 -1.8275 6.6875 -3.1875 6.6875 C-3.5175 6.0275 -3.8475 5.3675 -4.1875 4.6875 C-4.8475 5.3475 -5.5075 6.0075 -6.1875 6.6875 C-5.78066505 4.32785727 -5.28935661 2.82815912 -3.875 0.875 C-2.1875 -0.3125 -2.1875 -0.3125 0 0 Z " fill="#1C1D15" transform="translate(62.1875,16.3125)"/>
<path d="M0 0 C2.05078125 0.03255208 4.1015625 0.06510417 6.15234375 0.09765625 C5.52734375 2.03515625 5.52734375 2.03515625 4.15234375 4.09765625 C1.02734375 4.84765625 1.02734375 4.84765625 -1.84765625 5.09765625 C-2.41015625 3.16015625 -2.41015625 3.16015625 -2.84765625 1.09765625 C-1.84765625 0.09765625 -1.84765625 0.09765625 0 0 Z " fill="#CD5A98" transform="translate(44.84765625,103.90234375)"/>
<path d="M0 0 C0.66 0 1.32 0 2 0 C2.36717663 7.4659249 2.36717663 7.4659249 0.625 10 C-1 11 -1 11 -3 11 C-2.53199289 6.94393835 -2.12046792 3.53411321 0 0 Z " fill="#1B120F" transform="translate(49,93)"/>
<path d="M0 0 C0.99 0 1.98 0 3 0 C3.33 2.64 3.66 5.28 4 8 C3.01 8.33 2.02 8.66 1 9 C0.34 8.67 -0.32 8.34 -1 8 C-1.04241723 5.66705225 -1.04092937 3.33297433 -1 1 C-0.67 0.67 -0.34 0.34 0 0 Z " fill="#DEA026" transform="translate(38,37)"/>
<path d="M0 0 C2.1519437 3.22791555 2.20086443 4.28400809 2 8 C0.02 8.99 0.02 8.99 -2 10 C-2.66 9.01 -3.32 8.02 -4 7 C-2.68 4.69 -1.36 2.38 0 0 Z " fill="#0D230A" transform="translate(100,28)"/>
<path d="M0 0 C1.66666667 0 3.33333333 0 5 0 C4.67 2.64 4.34 5.28 4 8 C2.35 8 0.7 8 -1 8 C-1.125 2.25 -1.125 2.25 0 0 Z " fill="#D27054" transform="translate(34,97)"/>
<path d="M0 0 C0.33 0.66 0.66 1.32 1 2 C5.62 2 10.24 2 15 2 C14.01 3.485 14.01 3.485 13 5 C10.6670386 5.04166002 8.3329614 5.04166002 6 5 C5.34 5.66 4.68 6.32 4 7 C4 5.68 4 4.36 4 3 C2.68 3 1.36 3 0 3 C0 2.01 0 1.02 0 0 Z " fill="#2E2823" transform="translate(37,85)"/>
<path d="M0 0 C0.66 0 1.32 0 2 0 C2 0.66 2 1.32 2 2 C3.32 2.33 4.64 2.66 6 3 C5.34 3 4.68 3 4 3 C4 3.99 4 4.98 4 6 C4.99 6.33 5.98 6.66 7 7 C4.66705225 7.04241723 2.33297433 7.04092937 0 7 C-1 6 -1 6 -1.125 3.5 C-1 1 -1 1 0 0 Z " fill="#3E8D38" transform="translate(57,76)"/>
<path d="M0 0 C1.32 0 2.64 0 4 0 C4 1.98 4 3.96 4 6 C2.02 6 0.04 6 -2 6 C-1.125 1.125 -1.125 1.125 0 0 Z " fill="#DFAB1A" transform="translate(17,41)"/>
<path d="M0 0 C-2 2 -2 2 -5.5 2.0625 C-6.655 2.041875 -7.81 2.02125 -9 2 C-9.99 2.495 -9.99 2.495 -11 3 C-11.99 2.34 -12.98 1.68 -14 1 C-8.54264069 -2.54728355 -5.88238316 -1.92698759 0 0 Z " fill="#1B2119" transform="translate(92,22)"/>
<path d="M0 0 C1.65 0 3.3 0 5 0 C4.875 2.3125 4.875 2.3125 4 5 C0.9375 6.8125 0.9375 6.8125 -2 8 C-1.34 5.36 -0.68 2.72 0 0 Z " fill="#CD7751" transform="translate(45,90)"/>
<path d="M0 0 C4.62 0 9.24 0 14 0 C13.01 1.485 13.01 1.485 12 3 C7.45100954 3.42915004 4.10789738 2.99170782 0 1 C0 0.67 0 0.34 0 0 Z " fill="#182314" transform="translate(64,52)"/>
<path d="M0 0 C0.66 0.33 1.32 0.66 2 1 C2.625 3.5625 2.625 3.5625 3 6 C2.01 6.33 1.02 6.66 0 7 C-0.99 8.485 -0.99 8.485 -2 10 C-2.66 7.03 -3.32 4.06 -4 1 C-2.68 1.33 -1.36 1.66 0 2 C0 1.34 0 0.68 0 0 Z " fill="#C36A4D" transform="translate(29,32)"/>
<path d="M0 0 C3.875 1.75 3.875 1.75 5 4 C4.01 5.485 4.01 5.485 3 7 C1.68 7 0.36 7 -1 7 C-0.67 4.69 -0.34 2.38 0 0 Z " fill="#0D230B" transform="translate(81,31)"/>
<path d="M0 0 C1.2065625 0.0309375 1.2065625 0.0309375 2.4375 0.0625 C1.7775 2.0425 1.1175 4.0225 0.4375 6.0625 C-1.2125 6.0625 -2.8625 6.0625 -4.5625 6.0625 C-3.48963568 0.08511307 -3.48963568 0.08511307 0 0 Z " fill="#DB9336" transform="translate(15.5625,99.9375)"/>
<path d="M0 0 C0.66 0 1.32 0 2 0 C2 2.31 2 4.62 2 7 C0.35 7.33 -1.3 7.66 -3 8 C-2.25 2.25 -2.25 2.25 0 0 Z " fill="#D76684" transform="translate(61,95)"/>
<path d="M0 0 C0.33 0 0.66 0 1 0 C1 2.97 1 5.94 1 9 C-0.65 8.67 -2.3 8.34 -4 8 C-2.87548273 5.0280615 -1.77706209 2.66559313 0 0 Z " fill="#160E13" transform="translate(107,91)"/>
<path d="M0 0 C2.97 0.495 2.97 0.495 6 1 C5.25 6.75 5.25 6.75 3 9 C2 8 2 8 1.9375 4.4375 C1.958125 3.303125 1.97875 2.16875 2 1 C1.34 0.67 0.68 0.34 0 0 Z " fill="#2A6818" transform="translate(83,23)"/>
<path d="M0 0 C0.33 0.66 0.66 1.32 1 2 C2.32 2 3.64 2 5 2 C3.25 6.875 3.25 6.875 1 8 C0.01 7.67 -0.98 7.34 -2 7 C-2 6.34 -2 5.68 -2 5 C-1.34 5 -0.68 5 0 5 C0 3.35 0 1.7 0 0 Z " fill="#CA6956" transform="translate(25,102)"/>
<path d="M0 0 C3.22834569 2.15223046 3.46380996 2.47566883 4.3125 6 C4.49425781 6.70125 4.67601562 7.4025 4.86328125 8.125 C4.93095703 9.053125 4.93095703 9.053125 5 10 C4.34 10.66 3.68 11.32 3 12 C1.09598862 10.09598862 0.06479561 8.66574314 -0.19921875 5.953125 C-0.1886578 3.96766727 -0.09915043 1.9830086 0 0 Z " fill="#262216" transform="translate(15,86)"/>
<path d="M0 0 C0.66 0.33 1.32 0.66 2 1 C2.36923077 5.55384615 2.36923077 5.55384615 0.5 7.8125 C0.005 8.204375 -0.49 8.59625 -1 9 C-1.99 8.67 -2.98 8.34 -4 8 C-3.34 6.35 -2.68 4.7 -2 3 C-1.34 3 -0.68 3 0 3 C0 2.01 0 1.02 0 0 Z " fill="#CC9B26" transform="translate(32,82)"/>
<path d="M0 0 C0.33 0 0.66 0 1 0 C0.8125 3.3125 0.8125 3.3125 0 7 C-2.5625 8.9375 -2.5625 8.9375 -5 10 C-4.38531118 6.00452264 -2.34540624 3.22493358 0 0 Z " fill="#C46177" transform="translate(72,89)"/>
<path d="M0 0 C0.66 1.32 1.32 2.64 2 4 C0.75 6 0.75 6 -1 8 C-2.32 8 -3.64 8 -5 8 C-3.62845496 5.04590299 -2.01136276 2.55991624 0 0 Z " fill="#BC53A9" transform="translate(32,22)"/>
<path d="M0 0 C0.66 0.33 1.32 0.66 2 1 C0.55746343 4.36591866 -1.33264727 6.51047079 -4 9 C-4.33 7.35 -4.66 5.7 -5 4 C-4.34 4 -3.68 4 -3 4 C-3 3.34 -3 2.68 -3 2 C-2.01 1.34 -1.02 0.68 0 0 Z " fill="#2A211F" transform="translate(42,25)"/>
<path d="M0 0 C5.625 -0.25 5.625 -0.25 9 2 C8.34 3.65 7.68 5.3 7 7 C6.34 6.67 5.68 6.34 5 6 C5.33 5.01 5.66 4.02 6 3 C4.02 2.34 2.04 1.68 0 1 C0 0.67 0 0.34 0 0 Z " fill="#2C371F" transform="translate(101,18)"/>
<path d="M0 0 C0.66 0.33 1.32 0.66 2 1 C1.34 2.65 0.68 4.3 0 6 C-1.65 5.67 -3.3 5.34 -5 5 C-5 4.01 -5 3.02 -5 2 C-2.625 0.9375 -2.625 0.9375 0 0 Z " fill="#1C1114" transform="translate(68,98)"/>
<path d="M0 0 C0.99 0 1.98 0 3 0 C3 2.31 3 4.62 3 7 C1.02 7.99 1.02 7.99 -1 9 C-0.67 6.03 -0.34 3.06 0 0 Z " fill="#CE678B" transform="translate(85,87)"/>
<path d="M0 0 C1.32 0 2.64 0 4 0 C4.36923077 5.53846154 4.36923077 5.53846154 2.5 7.875 C1.7575 8.431875 1.7575 8.431875 1 9 C0.34 8.67 -0.32 8.34 -1 8 C-0.67 7.67 -0.34 7.34 0 7 C0.04092937 4.66702567 0.04241723 2.33294775 0 0 Z " fill="#40B925" transform="translate(52,57)"/>
<path d="M0 0 C1.98 0.495 1.98 0.495 4 1 C3.67 2.98 3.34 4.96 3 7 C1.68 7 0.36 7 -1 7 C-0.67 4.69 -0.34 2.38 0 0 Z " fill="#D57B58" transform="translate(48,29)"/>
<path d="M0 0 C-0.33 2.31 -0.66 4.62 -1 7 C-2.32 6.34 -3.64 5.68 -5 5 C-5 3.68 -5 2.36 -5 1 C-3 0 -3 0 0 0 Z " fill="#50C023" transform="translate(85,24)"/>
<path d="M0 0 C1.98 0.99 3.96 1.98 6 3 C6 3.66 6 4.32 6 5 C3.36 5.33 0.72 5.66 -2 6 C-2 5.34 -2 4.68 -2 4 C-1.34 4 -0.68 4 0 4 C0 2.68 0 1.36 0 0 Z " fill="#070C06" transform="translate(24,75)"/>
<path d="M0 0 C2.31 0.33 4.62 0.66 7 1 C5.6875 3.5 5.6875 3.5 4 6 C3.01 6 2.02 6 1 6 C0.67 4.02 0.34 2.04 0 0 Z " fill="#060E06" transform="translate(75,53)"/>
<path d="M0 0 C0.99 0 1.98 0 3 0 C3.625 1.875 3.625 1.875 4 4 C3.34 4.66 2.68 5.32 2 6 C1.01 6 0.02 6 -1 6 C-1.042721 4.33388095 -1.04063832 2.66617115 -1 1 C-0.67 0.67 -0.34 0.34 0 0 Z " fill="#E49B29" transform="translate(29,38)"/>
<path d="M0 0 C0.99 0.495 0.99 0.495 2 1 C2 1.66 2 2.32 2 3 C2.66 3 3.32 3 4 3 C4 4.98 4 6.96 4 9 C2 7.875 2 7.875 0 6 C-0.25 2.8125 -0.25 2.8125 0 0 Z " fill="#0C0C05" transform="translate(32,34)"/>
<path d="M0 0 C2.625 0.375 2.625 0.375 5 1 C4.38125 1.2475 3.7625 1.495 3.125 1.75 C0.64931313 3.20628639 0.04874998 4.37812506 -1 7 C-1.66 7 -2.32 7 -3 7 C-2.25 2.25 -2.25 2.25 0 0 Z " fill="#0A0906" transform="translate(53,86)"/>
<path d="M0 0 C0.66 0 1.32 0 2 0 C1.50769231 5.53846154 1.50769231 5.53846154 -1.0625 7.875 C-2.0215625 8.431875 -2.0215625 8.431875 -3 9 C-2.44271087 5.65626525 -1.64826111 2.96687001 0 0 Z " fill="#091907" transform="translate(74,30)"/>
<path d="M0 0 C0.66 0.33 1.32 0.66 2 1 C1.319375 1.5878125 1.319375 1.5878125 0.625 2.1875 C-1.27269457 4.30415932 -1.9638919 6.37519282 -3 9 C-3.99 9.495 -3.99 9.495 -5 10 C-5.3125 7.8125 -5.3125 7.8125 -5 5 C-2.5 2.1875 -2.5 2.1875 0 0 Z " fill="#B95FBE" transform="translate(38,16)"/>
<path d="M0 0 C0.99 0 1.98 0 3 0 C2.25 2.4375 2.25 2.4375 1 5 C-1.125 5.8125 -1.125 5.8125 -3 6 C-1.125 1.125 -1.125 1.125 0 0 Z " fill="#251314" transform="translate(67,91)"/>
<path d="M0 0 C0.33 0.99 0.66 1.98 1 3 C0.34 3.66 -0.32 4.32 -1 5 C-2.32 5 -3.64 5 -5 5 C-5 4.01 -5 3.02 -5 2 C-2 0 -2 0 0 0 Z " fill="#44B230" transform="translate(66,77)"/>
<path d="M0 0 C-0.66 0.66 -1.32 1.32 -2 2 C-2.33 2.99 -2.66 3.98 -3 5 C-3 4.34 -3 3.68 -3 3 C-4.32 3.33 -5.64 3.66 -7 4 C-7 3.34 -7 2.68 -7 2 C-7.66 1.67 -8.32 1.34 -9 1 C-6.04335481 -0.4783226 -3.25770263 -0.06032783 0 0 Z " fill="#90568E" transform="translate(26,17)"/>
<path d="M0 0 C0.33 0.99 0.66 1.98 1 3 C-0.3125 5.1875 -0.3125 5.1875 -2 7 C-2.66 7 -3.32 7 -4 7 C-4.33 6.01 -4.66 5.02 -5 4 C-3.35 2.68 -1.7 1.36 0 0 Z " fill="#AC5CA0" transform="translate(88,98)"/>
<path d="M0 0 C3 1 3 1 4 3 C1.69 3.66 -0.62 4.32 -3 5 C-2.625 3.0625 -2.625 3.0625 -2 1 C-1.34 0.67 -0.68 0.34 0 0 Z " fill="#1C180E" transform="translate(13,97)"/>
<path d="M0 0 C1.65 0 3.3 0 5 0 C4.67 1.98 4.34 3.96 4 6 C3.67 5.01 3.34 4.02 3 3 C2.01 3 1.02 3 0 3 C0 2.01 0 1.02 0 0 Z " fill="#D77750" transform="translate(19,33)"/>
<path d="M0 0 C0.99 0 1.98 0 3 0 C3 1.65 3 3.3 3 5 C2.01 5.33 1.02 5.66 0 6 C-1.125 2.25 -1.125 2.25 0 0 Z " fill="#3A9E26" transform="translate(94,17)"/>
<path d="M0 0 C0.33 0.99 0.66 1.98 1 3 C-0.65 4.32 -2.3 5.64 -4 7 C-4 4 -4 4 -2 1.8125 C-1.34 1.214375 -0.68 0.61625 0 0 Z " fill="#0B0907" transform="translate(73,95)"/>
<path d="M0 0 C0.99 0 1.98 0 3 0 C2.67 2.97 2.34 5.94 2 9 C0 7 0 7 -0.125 3.375 C-0.08375 2.26125 -0.0425 1.1475 0 0 Z " fill="#1A2313" transform="translate(22,69)"/>
<path d="M0 0 C0.99 0.33 1.98 0.66 3 1 C2.1875 2.9375 2.1875 2.9375 1 5 C0.01 5.33 -0.98 5.66 -2 6 C-1.125 1.125 -1.125 1.125 0 0 Z " fill="#3FBC23" transform="translate(60,63)"/>
<path d="M0 0 C0.99 0 1.98 0 3 0 C3 0.66 3 1.32 3 2 C3.66 2.33 4.32 2.66 5 3 C4.01 3.33 3.02 3.66 2 4 C1.67 4.99 1.34 5.98 1 7 C0.34 5.02 -0.32 3.04 -1 1 C-0.67 0.67 -0.34 0.34 0 0 Z " fill="#172715" transform="translate(55,54)"/>
<path d="M0 0 C0.99 0 1.98 0 3 0 C2.34 1.65 1.68 3.3 1 5 C-0.32 4.67 -1.64 4.34 -3 4 C-1.6875 2 -1.6875 2 0 0 Z " fill="#D5AC28" transform="translate(46,37)"/>
<path d="M0 0 C0.99 0.33 1.98 0.66 3 1 C2.67 2.65 2.34 4.3 2 6 C1.01 6 0.02 6 -1 6 C-1.042721 4.33388095 -1.04063832 2.66617115 -1 1 C-0.67 0.67 -0.34 0.34 0 0 Z " fill="#58C020" transform="translate(100,22)"/>
<path d="M0 0 C0.99 0 1.98 0 3 0 C2.67 1.32 2.34 2.64 2 4 C0.68 4 -0.64 4 -2 4 C-1.34 2.68 -0.68 1.36 0 0 Z " fill="#40AA28" transform="translate(61,19)"/>
<path d="M0 0 C0.66 0 1.32 0 2 0 C1.75 1.875 1.75 1.875 1 4 C-1.0625 5.25 -1.0625 5.25 -3 6 C-1.125 1.125 -1.125 1.125 0 0 Z " fill="#120A0B" transform="translate(83,90)"/>
<path d="M0 0 C0.66 0 1.32 0 2 0 C1.75 1.875 1.75 1.875 1 4 C-1.0625 5.25 -1.0625 5.25 -3 6 C-1.125 1.125 -1.125 1.125 0 0 Z " fill="#061405" transform="translate(51,59)"/>
<path d="M0 0 C0.66 1.32 1.32 2.64 2 4 C2.99 3.67 3.98 3.34 5 3 C4.34 4.65 3.68 6.3 3 8 C2.67 7.34 2.34 6.68 2 6 C1.34 6 0.68 6 0 6 C0 4.02 0 2.04 0 0 Z " fill="#40A128" transform="translate(105,30)"/>
<path d="M0 0 C1.98 0 3.96 0 6 0 C5.67 1.32 5.34 2.64 5 4 C4.34 4 3.68 4 3 4 C3 3.34 3 2.68 3 2 C1.68 2.33 0.36 2.66 -1 3 C-0.67 2.01 -0.34 1.02 0 0 Z " fill="#BF6364" transform="translate(47,27)"/>
<path d="M0 0 C0.99 0 1.98 0 3 0 C3 1.65 3 3.3 3 5 C1.68 4.67 0.36 4.34 -1 4 C-0.67 2.68 -0.34 1.36 0 0 Z " fill="#A352AA" transform="translate(14,23)"/>
</svg>
